<?xml version="1.0" encoding="UTF-8"?>
<!DOCTYPE svg PUBLIC "-//W3C//DTD SVG 1.1//EN" "http://www.w3.org/Graphics/SVG/1.1/DTD/svg11.dtd">
<!-- Creator: CorelDRAW -->
<svg xmlns="http://www.w3.org/2000/svg" xml:space="preserve" width="26.3182mm" height="28.9615mm" version="1.1" style="shape-rendering:geometricPrecision; text-rendering:geometricPrecision; image-rendering:optimizeQuality; fill-rule:evenodd; clip-rule:evenodd"
viewBox="0 0 2333.29 2567.64"
 xmlns:xlink="http://www.w3.org/1999/xlink"
 xmlns:xodm="http://www.corel.com/coreldraw/odm/2003">
 <defs>
  <style type="text/css">
   <![CDATA[
    .fil1 {fill:#FEFEFE}
    .fil0 {fill:#00C875}
    .fil2 {fill:#FEFEFE;fill-rule:nonzero}
   ]]>
  </style>
 </defs>
 <g id="Слой_x0020_1">
  <metadata id="CorelCorpID_0Corel-Layer"/>
  <g id="_2294769542336">
   <path class="fil0" d="M0.26 2342.64c0,-163.55 0,-297.32 0,-460.87 80.49,-0.16 131.68,-23.08 132.87,-88.39 -0.12,-431.31 -0.12,-573.38 -0.12,-1007.72 -1.32,-68.35 -52.51,-91.28 -133,-91.43 0,-163.55 0,-297.32 0,-460.87 389.09,17.13 512.35,-150.9 768.52,-226.36 125.72,-35.05 237.16,70.77 188.41,121.99 -25.49,26.77 -16.24,51.11 9.49,62.34 64.63,23.93 130.83,29.82 200.1,29.82 69.28,0 135.47,-5.9 200.11,-29.82 25.73,-11.23 34.98,-35.57 9.49,-62.34 -48.75,-51.23 62.69,-157.05 188.41,-121.99 256.17,75.46 379.43,243.49 768.52,226.36 0,163.55 0,297.32 0,460.87 -80.49,0.15 -131.68,23.08 -133,91.43 0,434.34 0,576.41 0.12,1007.72 1.45,65.31 52.64,88.23 133.14,88.39 0,163.55 0,297.32 0,460.87 -596.72,0 -836.09,225 -1166.78,225 -330.68,0 -569.55,-225 -1166.26,-225z"/>
   <path class="fil1" d="M2102.63 782.56l-0.17 1012.45c1.25,66.05 26.99,116.43 83.7,150.73 12,7.25 24.79,13.05 38.03,17.63l10.71 3.71 0 279.59 -15.17 0.72c-129.16,6.12 -255.89,23.45 -381.77,53 -99.99,23.47 -196.46,54.3 -293.88,86.4 -122.05,40.2 -247.59,82.97 -377.55,82.97 -129.95,0 -255.5,-42.78 -377.55,-82.97 -97.42,-32.09 -193.88,-62.93 -293.87,-86.4 -125.88,-29.55 -252.61,-46.88 -381.78,-53l-15.16 -0.72 0 -279.59 10.71 -3.71c13.24,-4.58 26.03,-10.38 38.03,-17.63 56.71,-34.3 82.45,-84.69 83.69,-150.73l-0.17 -1012.45c-1.65,-65.6 -26.55,-116.35 -82.59,-151.14 -12.35,-7.67 -25.56,-13.8 -39.28,-18.61l-10.65 -3.73 0 -277.52 15.17 -0.71c43.75,-2.05 87.35,-6.62 130.49,-14.28 63.68,-11.3 124.62,-29.2 184.65,-53.19 53.83,-21.51 105.47,-47.25 157.23,-73.23 39.72,-19.93 78.47,-40.21 119.38,-57.88 33.57,-14.5 97.53,-40.71 134.08,-32.59l17.14 3.8 -5.46 16.69c-7.07,21.59 -8.4,43.79 -3.69,65.98 9.78,46.01 43.2,79.84 86.13,97.03 38.42,14.2 78.18,23.31 118.72,28.74 38.15,5.12 76.32,7.13 114.78,7.13 38.48,0 76.64,-2.01 114.79,-7.13 40.54,-5.43 80.3,-14.54 118.71,-28.74 42.94,-17.19 76.36,-51.01 86.14,-97.03 4.72,-22.19 3.38,-44.39 -3.69,-65.98l-5.46 -16.69 17.14 -3.8c36.55,-8.12 100.51,18.09 134.08,32.59 40.9,17.67 79.65,37.95 119.38,57.88 51.77,25.98 103.39,51.72 157.23,73.23 60.03,23.98 120.95,41.88 184.65,53.19 43.13,7.66 86.73,12.23 130.49,14.28l15.18 0.71 0 277.52 -10.65 3.73c-13.72,4.81 -26.93,10.94 -39.28,18.61 -56.04,34.79 -80.94,85.55 -82.6,151.14zm-936.11 1671.27c123.1,0 239.33,-38.28 372.58,-82.18 177.81,-58.57 382.8,-126.1 679.88,-140.18l0 -253.06c-14.64,-5.07 -28.34,-11.37 -41.05,-19.06 -57.37,-34.69 -89.98,-87.59 -91.38,-164.21l0.17 -1012.78c1.89,-76.8 33.99,-129.63 90.12,-164.47 13.15,-8.17 27.31,-14.81 42.4,-20.11l0 -251.04c-47.99,-2.25 -91.85,-7.3 -132.52,-14.51 -141.45,-25.12 -243.85,-76.48 -346.24,-127.86 -45.22,-22.69 -189.94,-100.92 -242.87,-89.16 8.23,25.13 9.26,50.14 4.13,74.24 -10.89,51.23 -47.91,89.38 -95.99,108.57 -40.05,14.82 -80.76,24.09 -122.31,29.66 -40.76,5.47 -79.16,7.28 -116.91,7.28 -37.74,0 -76.14,-1.81 -116.9,-7.28 -41.55,-5.57 -82.26,-14.83 -122.32,-29.66 -48.08,-19.19 -85.09,-57.34 -95.99,-108.57 -5.12,-24.11 -4.09,-49.12 4.13,-74.24 -52.92,-11.76 -197.64,66.48 -242.87,89.16 -102.38,51.38 -204.78,102.74 -346.23,127.86 -40.68,7.22 -84.53,12.26 -132.52,14.51l0 251.04c15.09,5.29 29.25,11.94 42.4,20.11 56.13,34.84 88.23,87.66 90.12,164.47l0.17 1012.78c-1.4,76.62 -34.02,129.52 -91.38,164.21 -12.7,7.69 -26.41,13.99 -41.06,19.06l0 253.06c297.07,14.08 502.07,81.61 679.88,140.18 133.25,43.89 249.48,82.18 372.57,82.18z"/>
   <path class="fil2" d="M428.82 2131.2l0 -5.75c-1.09,-2.43 -3.87,-9.96 -8.38,-22.61 -5.29,-14.92 -9.17,-25.06 -11.71,-30.47 -2.51,-5.36 -5.6,-9.32 -9.28,-11.79 -3.69,-2.5 -8.97,-3.71 -15.83,-3.71l-2.31 0 0 45.55c0,7.55 0.71,12.65 2.12,15.31 1.41,2.62 4.86,4.58 10.26,5.91l0 7.56 -60.24 0 0 -7.56c5.29,-1.33 8.66,-3.24 10.11,-5.8 1.45,-2.58 2.2,-7.71 2.2,-15.43l0 -98.94c0,-7.87 -0.71,-13.04 -2.07,-15.47 -1.37,-2.47 -4.78,-4.42 -10.23,-5.88l0 -7.56 60.24 0 0 7.56c-5.33,1.45 -8.73,3.45 -10.18,5.99 -1.49,2.51 -2.2,7.64 -2.2,15.36l0 40.85 2.43 0c9.25,0 16.3,-2.7 21.15,-8.07 4.86,-5.41 8.93,-13.01 12.22,-22.8 4,-12.02 7.64,-20.48 10.97,-25.45 3.33,-4.97 7.53,-8.78 12.58,-11.36 5.01,-2.62 11.59,-3.92 19.74,-3.92 6.27,0 11.76,0.9 16.49,2.62l0 28.35 -16.17 0c-0.82,-6.97 -3.88,-10.45 -9.17,-10.45 -4,0 -7.37,2.11 -10.15,6.35 -2.82,4.18 -5.72,10.18 -8.77,18.02 -4.89,12.93 -11.71,21.77 -20.44,26.6l0 1.17c7.94,0.9 14.34,2.94 19.11,6.11 4.78,3.17 8.46,6.98 11,11.32 2.59,4.35 6.54,12.97 11.87,25.82 6.34,15.39 10.73,24.87 13.16,28.48 2.39,3.56 6.3,5.75 11.76,6.53l0 7.56 -50.26 0zm110.85 -28.67c0,5.02 0.2,8.62 0.59,10.74 0.35,2.07 0.98,3.76 1.88,5.01 0.86,1.29 2.15,2.31 3.79,3.17 1.65,0.82 4.19,1.57 7.6,2.19l0 7.56 -61.73 0 0 -7.56c2.86,-0.78 5.1,-1.6 6.74,-2.46 1.65,-0.9 2.86,-2.12 3.64,-3.68 0.82,-1.57 1.33,-3.56 1.57,-5.96 0.23,-2.43 0.35,-5.48 0.35,-9.12l0 -98.94c0,-3.61 -0.12,-6.62 -0.32,-9.05 -0.15,-2.46 -0.66,-4.42 -1.49,-5.99 -0.78,-1.52 -1.99,-2.74 -3.63,-3.71 -1.65,-0.94 -3.92,-1.81 -6.86,-2.59l0 -7.56 66.67 0c19.39,0 33.88,3.45 43.51,10.38 9.64,6.93 14.46,17.59 14.46,31.96 0,10.19 -2.28,19 -6.78,26.52 -4.5,7.48 -11.05,13.17 -19.62,17.04 -8.58,3.84 -19.27,5.8 -32.12,5.8 -7.44,0 -13.51,-0.16 -18.25,-0.47l0 36.74zm0 -49.7l9.88 0c7.63,0 13.71,-1.1 18.25,-3.25 4.5,-2.2 7.84,-5.68 10.03,-10.42 2.2,-4.74 3.29,-11.13 3.29,-19.16 0,-7.95 -1.09,-14.29 -3.29,-18.99 -2.19,-4.71 -5.36,-8.03 -9.59,-10.03 -4.19,-2 -9.59,-2.98 -16.18,-2.98 -5.33,0 -9.48,0.08 -12.38,0.23l0 64.6zm156.4 29.84l-49 0 -3.76 10.89c-1.1,3.06 -1.96,6.04 -2.66,8.89 -0.66,2.86 -1.02,5.91 -1.02,9.13 0,7.47 3.95,11.51 11.94,12.06l0 7.56 -49 0 0 -7.56c2.82,-0.31 5.29,-1.33 7.45,-3.01 2.15,-1.68 4.07,-3.95 5.83,-6.85 1.76,-2.93 3.64,-7.09 5.64,-12.54l47.87 -127.49 30.63 0 37.87 128.55c1.68,5.72 3.09,9.79 4.23,12.22 1.13,2.38 2.62,4.34 4.47,5.83 1.84,1.49 4.42,2.59 7.71,3.29l0 7.56 -63.37 0 0 -7.56c4,-0.47 6.93,-1.56 8.85,-3.32 1.92,-1.76 2.86,-4.27 2.86,-7.48 0,-2.35 -0.27,-5.02 -0.78,-7.91 -0.55,-2.9 -1.41,-6.59 -2.67,-11.01l-3.09 -11.24zm-44.61 -13.43l41.29 0 -18.33 -64.6 -22.95 64.6zm225.22 -91.11l0 33.26 -15.59 0c-1.84,-8.62 -4.74,-15 -8.73,-19.07 -3.95,-4.11 -9.17,-6.15 -15.59,-6.15 -12.1,0 -21.22,5.8 -27.41,17.39 -6.23,11.59 -9.33,28.79 -9.33,51.58 0,21.19 2.86,37.21 8.5,48.14 5.68,10.89 13.98,16.33 24.91,16.33 5.6,0 10.14,-0.94 13.67,-2.82 3.48,-1.88 6.3,-4.66 8.42,-8.42 2.11,-3.76 3.92,-9.01 5.44,-15.83l15.7 0 0 34.74c-8.38,2 -16.09,3.45 -23.02,4.39 -6.98,0.9 -14.22,1.37 -21.7,1.37 -15.91,0 -28.9,-2.86 -38.97,-8.62 -10.06,-5.72 -17.47,-14.42 -22.24,-25.97 -4.78,-11.6 -7.17,-26.29 -7.17,-44.03 0,-16.61 2.82,-31.02 8.42,-43.33 5.64,-12.25 13.9,-21.74 24.83,-28.4 10.97,-6.66 24.05,-9.98 39.25,-9.98 7.76,0 14.73,0.43 20.99,1.25 6.3,0.86 12.85,2.23 19.62,4.15zm156.05 124.29c0,5.87 0.27,9.91 0.74,12.1 0.51,2.15 1.52,4 3.06,5.44 1.52,1.45 4.31,2.66 8.38,3.68l0 7.56 -59.89 0 0 -7.56c4.42,-1.17 7.29,-2.31 8.58,-3.44 1.33,-1.18 2.23,-2.78 2.77,-4.9 0.51,-2.11 0.79,-6.38 0.79,-12.88l0 -46.02 -51.86 0 0 46.02c0,2.66 0.08,5.13 0.24,7.44 0.15,2.31 0.43,4.19 0.9,5.64 0.47,1.45 1.13,2.67 2,3.64 0.9,1.02 2.11,1.88 3.64,2.59 1.52,0.74 3.4,1.37 5.59,1.91l0 7.56 -60.24 0 0 -7.56c2.86,-0.78 5.1,-1.6 6.74,-2.46 1.65,-0.9 2.86,-2.12 3.64,-3.68 0.82,-1.57 1.33,-3.56 1.57,-5.96 0.23,-2.43 0.35,-5.48 0.35,-9.12l0 -98.94c0,-3.61 -0.12,-6.62 -0.32,-9.05 -0.15,-2.46 -0.66,-4.42 -1.49,-5.99 -0.78,-1.52 -1.99,-2.74 -3.63,-3.71 -1.65,-0.94 -3.92,-1.81 -6.86,-2.59l0 -7.56 60.24 0 0 7.56c-4.03,1.18 -6.81,2.43 -8.3,3.8 -1.49,1.37 -2.54,3.21 -3.17,5.44 -0.59,2.27 -0.9,6.34 -0.9,12.22l0 38.34 51.86 0 0 -38.34c0,-5.8 -0.24,-9.83 -0.74,-12.1 -0.51,-2.27 -1.49,-4.07 -2.98,-5.52 -1.49,-1.41 -4.31,-2.66 -8.42,-3.84l0 -7.56 59.89 0 0 7.56c-3.37,0.94 -5.83,1.92 -7.36,2.93 -1.53,1.02 -2.62,2.36 -3.25,3.96 -0.66,1.6 -1.06,3.4 -1.25,5.4 -0.2,2 -0.32,5.05 -0.32,9.17l0 98.83zm103.05 30.63c-22.48,0 -39.36,-6.59 -50.64,-19.74 -11.29,-13.16 -16.92,-32.87 -16.92,-59.11 0,-17.19 2.7,-31.92 8.18,-44.1 5.49,-12.23 13.52,-21.51 24.17,-27.86 10.62,-6.34 23.27,-9.51 37.95,-9.51 22.87,0 40.07,6.58 51.55,19.7 11.48,13.09 17.2,32.59 17.2,58.44 0,14.45 -1.68,26.86 -5.09,37.24 -3.41,10.38 -8.27,18.88 -14.54,25.54 -6.26,6.66 -13.79,11.55 -22.52,14.68 -8.78,3.14 -18.53,4.71 -29.34,4.71zm-31.1 -81.95c0,23.11 2.78,40.3 8.34,51.59 5.52,11.28 14.03,16.92 25.42,16.92 5.88,0 10.9,-1.56 15.01,-4.73 4.15,-3.22 7.47,-7.64 10.06,-13.32 2.54,-5.72 4.39,-12.46 5.49,-20.26 1.13,-7.83 1.68,-16.37 1.68,-25.73 0,-15.2 -1.21,-27.97 -3.63,-38.27 -2.39,-10.26 -6.04,-18.05 -10.9,-23.26 -4.85,-5.25 -11.08,-7.87 -18.64,-7.87 -11.08,0 -19.34,5.29 -24.71,15.91 -5.41,10.58 -8.11,26.94 -8.11,49.04zm125.77 80.1l0 -7.56c5.29,-1.33 8.66,-3.24 10.11,-5.8 1.45,-2.58 2.2,-7.71 2.2,-15.43l0 -98.94c0,-7.87 -0.71,-13.04 -2.07,-15.47 -1.37,-2.47 -4.78,-4.42 -10.23,-5.88l0 -7.56 120.84 0 0 38.78 -15.71 0c-3.44,-10.69 -6.77,-17.55 -10.03,-20.52 -3.24,-2.98 -8.34,-4.46 -15.23,-4.46l-32.01 0 0 52.76c10.42,-0.98 19.23,-1.49 26.52,-1.49 19.19,0 33.57,3.68 43.09,11 9.52,7.37 14.3,19.03 14.3,35.02 0,30.36 -20.37,45.55 -61.07,45.55l-70.7 0zm47.87 -13.79c19.9,1.33 32.94,-0.71 39.13,-5.99 6.19,-5.33 9.28,-13.75 9.28,-25.3 0,-21.19 -10.42,-31.81 -31.3,-31.81l-4.03 0c-5.36,0 -9.72,0.24 -13.09,0.71l0 62.4zm185.07 -34.74l-49 0 -3.76 10.89c-1.1,3.06 -1.96,6.04 -2.66,8.89 -0.66,2.86 -1.02,5.91 -1.02,9.13 0,7.47 3.95,11.51 11.94,12.06l0 7.56 -49 0 0 -7.56c2.82,-0.31 5.29,-1.33 7.45,-3.01 2.15,-1.68 4.07,-3.95 5.83,-6.85 1.76,-2.93 3.64,-7.09 5.64,-12.54l47.87 -127.49 30.63 0 37.87 128.55c1.68,5.72 3.09,9.79 4.23,12.22 1.13,2.38 2.62,4.34 4.47,5.83 1.84,1.49 4.42,2.59 7.71,3.29l0 7.56 -63.37 0 0 -7.56c4,-0.47 6.93,-1.56 8.85,-3.32 1.92,-1.76 2.86,-4.27 2.86,-7.48 0,-2.35 -0.27,-5.02 -0.78,-7.91 -0.55,-2.9 -1.41,-6.59 -2.67,-11.01l-3.09 -11.24zm-44.61 -13.43l41.29 0 -18.33 -64.6 -22.95 64.6zm230.08 -94.68l0 36.51 -15.75 0c-2.51,-7.29 -4.66,-12.18 -6.43,-14.77 -1.76,-2.54 -3.87,-4.57 -6.3,-6.06 -2.47,-1.49 -6.62,-2.23 -12.5,-2.23l-25.03 0 0 55.06 15.16 0c3.37,0 5.99,-0.47 7.91,-1.45 1.92,-0.94 3.49,-2.54 4.74,-4.74 1.29,-2.23 2.46,-5.67 3.64,-10.34l12.96 0 0 46.62 -12.96 0c-1.1,-4.47 -2.27,-7.84 -3.56,-10.19 -1.29,-2.31 -2.86,-4 -4.66,-4.97 -1.8,-1.02 -4.5,-1.49 -8.07,-1.49l-15.16 0 0 61.26 24.91 0c2.67,0 4.94,-0.16 6.77,-0.51 1.81,-0.35 3.45,-0.94 4.94,-1.76 1.45,-0.86 2.82,-1.99 4.15,-3.44 1.37,-1.45 2.55,-3.02 3.56,-4.71 1.06,-1.68 2.12,-3.91 3.3,-6.66 1.13,-2.77 2.38,-6.53 3.76,-11.36l15.75 0 -2.2 41.87 -112.81 0 0 -7.56c2.86,-0.78 5.1,-1.6 6.74,-2.46 1.65,-0.9 2.86,-2.12 3.64,-3.68 0.82,-1.57 1.33,-3.56 1.57,-5.96 0.23,-2.43 0.35,-5.48 0.35,-9.12l0 -98.94c0,-3.61 -0.12,-6.62 -0.32,-9.05 -0.15,-2.46 -0.66,-4.42 -1.49,-5.99 -0.78,-1.52 -1.99,-2.74 -3.63,-3.71 -1.65,-0.94 -3.92,-1.81 -6.86,-2.59l0 -7.56 113.87 0zm120.72 74.58c10.69,3.37 18.88,8.26 24.48,14.66 5.65,6.38 8.47,14.06 8.47,22.99 0,7.63 -1.29,14.3 -3.88,19.97 -2.54,5.64 -6.46,10.3 -11.67,13.95 -5.25,3.64 -11.4,6.3 -18.49,7.99 -7.08,1.68 -16.09,2.51 -27.02,2.51l-70.7 0 0 -7.56c2.86,-0.78 5.1,-1.6 6.74,-2.46 1.65,-0.9 2.86,-2.12 3.64,-3.68 0.82,-1.57 1.33,-3.56 1.57,-5.96 0.23,-2.43 0.35,-5.48 0.35,-9.12l0 -98.94c0,-3.61 -0.12,-6.62 -0.32,-9.05 -0.15,-2.46 -0.66,-4.42 -1.49,-5.99 -0.78,-1.52 -1.99,-2.74 -3.63,-3.71 -1.65,-0.94 -3.92,-1.81 -6.86,-2.59l0 -7.56 75.17 0c8.57,0 15.59,0.43 20.99,1.26 7.21,1.13 13.43,3.13 18.72,5.95 4.74,2.54 8.47,6.15 11.13,10.82 2.67,4.65 4.03,10.22 4.03,16.64 0,17.28 -10.42,30.24 -31.22,38.89l0 1.02zm-35.68 -5.95c7.64,0 13.64,-1.1 18.02,-3.33 4.34,-2.23 7.63,-5.36 9.9,-9.48 2.28,-4.07 3.37,-9.72 3.37,-16.92 0,-6.34 -1.21,-11.36 -3.64,-15.07 -2.46,-3.72 -5.95,-6.39 -10.45,-8 -4.5,-1.6 -10.14,-2.38 -16.88,-2.38 -5.33,0 -10.54,0.2 -15.59,0.55l0 54.64 15.28 0zm-15.28 74.22c4.5,0.23 9.72,0.35 15.59,0.35 7.28,0 13.27,-0.9 17.97,-2.7 4.71,-1.8 8.35,-4.94 10.98,-9.41 2.58,-4.46 3.87,-10.61 3.87,-18.41 0,-5.52 -0.66,-10.22 -2.04,-14.18 -1.41,-3.96 -3.45,-7.13 -6.22,-9.52 -2.75,-2.43 -6.04,-4.15 -9.88,-5.28 -3.79,-1.1 -8.57,-1.65 -14.34,-1.65l-15.94 0 0 60.79zm183.71 -34.74l-49 0 -3.76 10.89c-1.1,3.06 -1.96,6.04 -2.66,8.89 -0.66,2.86 -1.02,5.91 -1.02,9.13 0,7.47 3.95,11.51 11.94,12.06l0 7.56 -49 0 0 -7.56c2.82,-0.31 5.29,-1.33 7.45,-3.01 2.15,-1.68 4.07,-3.95 5.83,-6.85 1.76,-2.93 3.64,-7.09 5.64,-12.54l47.87 -127.49 30.63 0 37.87 128.55c1.68,5.72 3.09,9.79 4.23,12.22 1.13,2.38 2.62,4.34 4.47,5.83 1.84,1.49 4.42,2.59 7.71,3.29l0 7.56 -63.37 0 0 -7.56c4,-0.47 6.93,-1.56 8.85,-3.32 1.92,-1.76 2.86,-4.27 2.86,-7.48 0,-2.35 -0.27,-5.02 -0.78,-7.91 -0.55,-2.9 -1.41,-6.59 -2.67,-11.01l-3.09 -11.24zm-44.61 -13.43l41.29 0 -18.33 -64.6 -22.95 64.6z"/>
   <path class="fil2" d="M861.33 618.85c-6.97,14.68 -13.87,25.65 -20.64,32.94 -6.82,7.29 -15.63,10.89 -26.4,10.89 -6.07,0 -13.24,-1.09 -21.58,-3.32l0 -32.12 16.77 0c0.35,9.79 3.99,14.69 10.89,14.69 8.26,0 15.78,-7.01 22.6,-20.99l-40.03 -86.88c-4.08,-8.78 -7.29,-14.81 -9.72,-18.02 -2.38,-3.21 -5.44,-4.93 -9.12,-5.17l0 -7.56 61.18 0 0 7.56c-5.91,0.78 -8.86,3.68 -8.86,8.73 0,2.9 2.04,8.97 6.07,18.14l19.63 45.67 18.84 -44.65c3.37,-7.95 5.05,-14.22 5.05,-18.8 0,-5.75 -2.98,-8.78 -8.97,-9.09l0 -7.56 45.44 0 0 7.56c-4.27,0.94 -8.07,3.56 -11.4,7.87 -3.32,4.31 -7.16,10.66 -11.52,19l-38.23 81.12zm184.72 41.08l-62.75 0 0 -7.56c6.51,-1.52 10.42,-3.79 11.79,-6.77 1.41,-2.98 2.07,-8.42 2.07,-16.3l0 -112.34 -25.34 0c-1.53,17.75 -4.47,36.82 -8.78,57.23 -4.34,20.44 -9.09,37.64 -14.29,51.59 -5.21,13.98 -10.74,23.46 -16.53,28.47 -5.8,5.02 -13.24,7.53 -22.24,7.53 -6.98,0 -13.32,-0.94 -19.08,-2.75l0 -27.77 14.69 0c1.1,6.7 4,10.06 8.73,10.06 3.76,0 7.32,-1.64 10.66,-4.97 3.37,-3.32 7.16,-11.36 11.36,-24.09 4.23,-12.77 8.15,-28.24 11.83,-46.49 3.69,-18.25 5.52,-31.49 5.52,-39.75 0,-5.64 -0.86,-9.48 -2.58,-11.4 -1.73,-1.96 -4.74,-3.21 -9.02,-3.76l0 -7.56 103.96 0 0 7.56c-5.41,1.37 -9.01,3.14 -10.74,5.29 -1.72,2.15 -2.58,8.02 -2.58,17.66l0 95.49c0,9.09 0.82,14.89 2.43,17.31 1.6,2.46 5.25,4.34 10.89,5.75l0 7.56zm159.73 -28.79c0,7.71 0.66,12.85 1.99,15.43 1.33,2.55 4.74,4.47 10.14,5.8l0 7.56 -59.89 0 0 -7.56c5.52,-1.33 8.94,-3.09 10.22,-5.36 1.29,-2.23 1.96,-7.56 1.96,-15.86l0 -44.89c0,-13.56 0.35,-23.81 1.02,-30.87l-0.66 0 -54.52 75.76c0,7.55 0.71,12.65 2.12,15.31 1.41,2.62 4.86,4.58 10.26,5.91l0 7.56 -60.24 0 0 -7.56c5.29,-1.33 8.66,-3.24 10.11,-5.8 1.45,-2.58 2.2,-7.71 2.2,-15.43l0 -98.94c0,-7.87 -0.71,-13.04 -2.07,-15.47 -1.37,-2.47 -4.78,-4.42 -10.23,-5.88l0 -7.56 60.24 0 0 7.56c-5.4,1.52 -8.85,3.56 -10.26,6.11 -1.41,2.51 -2.12,7.64 -2.12,15.36l0 50.49c0,9.56 -0.27,17.12 -0.82,22.6l0.71 0 54.28 -75.83c0,-6.43 -0.7,-10.81 -2.07,-13.17 -1.37,-2.31 -4.73,-4.18 -10.11,-5.56l0 -7.56 59.89 0 0 7.56c-5.32,1.45 -8.69,3.45 -10.06,5.91 -1.37,2.51 -2.07,7.68 -2.07,15.55l0 98.83zm166.15 14.34l20.57 0 0 55.89 -15.28 0c-2.67,-17.31 -5.76,-28.51 -9.25,-33.68 -3.45,-5.17 -8.54,-7.76 -15.2,-7.76l-113.47 0 0 -7.56c5.49,-1.45 8.97,-3.44 10.38,-5.99 1.41,-2.5 2.11,-7.68 2.11,-15.47l0 -98.7c0,-7.79 -0.7,-12.96 -2.11,-15.47 -1.41,-2.54 -4.89,-4.47 -10.38,-5.76l0 -7.55 61.49 0 0 7.55c-5.52,1.29 -8.89,3.09 -10.22,5.33 -1.29,2.27 -1.91,7.56 -1.91,15.91l0 113.16 47.35 0 0 -113.16c0,-7.56 -0.7,-12.65 -2.11,-15.32 -1.41,-2.62 -4.82,-4.62 -10.27,-5.91l0 -7.55 60.6 0 0 7.55c-5.29,1.29 -8.66,3.25 -10.11,5.8 -1.45,2.59 -2.2,7.72 -2.2,15.44l0 113.28zm119 -34.08l-49 0 -3.76 10.89c-1.1,3.06 -1.96,6.04 -2.66,8.89 -0.66,2.86 -1.02,5.91 -1.02,9.13 0,7.47 3.95,11.51 11.94,12.06l0 7.56 -49 0 0 -7.56c2.82,-0.31 5.29,-1.33 7.45,-3.01 2.15,-1.68 4.07,-3.95 5.83,-6.85 1.76,-2.93 3.64,-7.09 5.64,-12.54l47.87 -127.49 30.63 0 37.87 128.55c1.68,5.72 3.09,9.79 4.23,12.22 1.13,2.38 2.62,4.34 4.47,5.83 1.84,1.49 4.42,2.59 7.71,3.29l0 7.56 -63.37 0 0 -7.56c4,-0.47 6.93,-1.56 8.85,-3.32 1.92,-1.76 2.86,-4.27 2.86,-7.48 0,-2.35 -0.27,-5.02 -0.78,-7.91 -0.55,-2.9 -1.41,-6.59 -2.67,-11.01l-3.09 -11.24zm-44.61 -13.43l41.29 0 -18.33 -64.6 -22.95 64.6z"/>
   <path class="fil2" d="M885.69 1621.73c0,25.62 1.36,44.9 4.31,58.05 2.71,13.15 7.93,23.58 15.19,31.97 7.26,8.17 17.92,14.51 31.52,19.27 13.83,4.54 31.07,8.17 51.93,10.43 20.86,2.49 48.3,4.08 82.31,4.98l0 60.54 -573.22 0 0 -60.54c48.97,-2.04 84.13,-5.21 105.21,-8.84 21.09,-3.86 37.19,-9.52 48.07,-17 11.12,-7.48 19.27,-18.15 24.27,-31.75 5.21,-13.83 7.71,-36.28 7.71,-67.12l0 -480.48c0,-18.14 -3.4,-31.07 -10.2,-39 -7.03,-8.17 -16.33,-12.02 -28.34,-12.02 -11.11,0 -26.54,4.99 -46.71,15.2 -20.18,10.2 -53.28,31.07 -99.31,62.58l-40.59 -70.52 346.69 -207.93 85.03 0c-2.49,42.63 -3.85,101.35 -3.85,176.63l0 555.53zm377.31 143.99l0 -165.97 120.17 0c11.11,48.29 28.8,84.12 53.29,107.93 24.26,23.58 55.77,35.6 94.32,35.6 48.3,0 83.9,-14.97 106.81,-44.9 23.12,-29.93 34.69,-75.96 34.69,-138.54 0,-61.45 -14.97,-108.38 -44.67,-140.81 -29.48,-32.42 -72.56,-48.52 -128.79,-48.52 -21.77,0 -45.13,2.04 -70.07,6.13 -24.94,3.86 -47.39,8.84 -66.66,14.51l-59.86 -37.19 0 -453.72 392.5 0c16.55,0 28.34,-1.13 35.83,-3.4 7.7,-2.04 13.83,-5.9 18.81,-11.34 4.77,-5.21 9.98,-14.97 15.88,-29.03l73.01 0 -13.15 211.78 -407.92 0 0 239.22c26.53,-7.93 53.51,-13.83 81.4,-17.69 27.67,-3.63 61.68,-5.67 101.81,-5.67 54.87,0 103.17,10.2 144.44,30.61 41.49,20.4 73.69,49.88 96.37,88.66 22.9,38.77 34.24,84.35 34.24,136.5 0,61.23 -13.61,112.47 -41.05,153.74 -27.66,41.49 -67.11,72.56 -119.04,93.2 -51.7,20.41 -113.83,30.83 -185.93,30.83 -46.48,0 -93.88,-4.76 -142.17,-14.06 -48.3,-9.29 -89.79,-21.77 -124.26,-37.87z"/>
  </g>
 </g>
</svg>
