<?xml version="1.0" encoding="UTF-8"?>
<!DOCTYPE svg PUBLIC "-//W3C//DTD SVG 1.1//EN" "http://www.w3.org/Graphics/SVG/1.1/DTD/svg11.dtd">
<!-- Creator: CorelDRAW -->
<svg xmlns="http://www.w3.org/2000/svg" xml:space="preserve" width="28.4478mm" height="20.6031mm" version="1.1" style="shape-rendering:geometricPrecision; text-rendering:geometricPrecision; image-rendering:optimizeQuality; fill-rule:evenodd; clip-rule:evenodd"
viewBox="0 0 2541.54 1840.69"
 xmlns:xlink="http://www.w3.org/1999/xlink"
 xmlns:xodm="http://www.corel.com/coreldraw/odm/2003">
 <defs>
  <style type="text/css">
   <![CDATA[
    .fil0 {fill:#007136}
    .fil1 {fill:#00C875}
    .fil2 {fill:#01BE71}
   ]]>
  </style>
 </defs>
 <g id="Слой_x0020_1">
  <metadata id="CorelCorpID_0Corel-Layer"/>
  <g id="_2293775681728">
   <path class="fil0" d="M147.38 0l343.48 0c81.06,0 147.38,66.33 147.38,147.38l0 88.87c0,-13.42 10.96,-24.38 24.38,-24.38l1785.5 0c13.42,0 24.38,10.96 24.38,24.38l0 403.94c0,13.41 -10.96,24.38 -24.38,24.38l-73.1 0 0 630.64 166.53 0 0 10.29 0 9.69 0 25.68 -1.89 0c-11.94,80.58 -79.1,143.78 -161.46,149.56l0 -45.78c59.17,-5.24 108.04,-47.78 122.8,-103.79l-125.99 0 -49.49 0 -1025.33 0c-6.08,41.05 -26.49,77.6 -55.95,104.35l1130.76 0 0 19 0 26.65 0 142.27 74.99 0c14.73,0 26.81,12.07 26.81,26.82l0 153.92c0,14.76 -12.08,26.82 -26.81,26.82l-2396.84 0c-14.73,0 -26.81,-12.06 -26.81,-26.82l0 -153.92c0,-14.75 12.08,-26.82 26.81,-26.82l48.23 0 0 -968.57 -101.39 0 0 -517.18c0,-81.05 66.32,-147.38 147.38,-147.38zm2178.15 664.56l-107.59 0 10.95 630.64 96.64 0 0 -630.64zm-1063.96 676.3l-7.64 0 0 -45.66 929.86 0 -12.34 -705.77c-1.14,-65.75 -53.82,-119.57 -119.57,-119.57l-111.85 0 -1005.79 0c37.06,24.86 61.57,67.14 61.57,114.87l0 518.54 0 77.37 0 174.37c20.09,52.59 71.16,90.2 130.59,90.2 64.64,0 119.38,-44.49 135.15,-104.35zm-310.84 37.45l0 0 0 -63.13 0 -70.14 -606.86 0 0 388.09 1799.09 0 0 -142.27 -1016.53 0 -39.01 0 0 0c-57.18,-13.1 -115.76,-58.71 -136.67,-112.55zm1266.46 -757.08l175.63 0c10.85,0 19.7,-8.86 19.7,-19.71l0 -326.62c0,-10.85 -8.85,-19.72 -19.7,-19.72l-1754.58 0 0 366.05 312.49 0 0 -31.81c0,-65.75 -53.8,-119.57 -119.57,-119.57l-111.84 0 0 -23.38 0 -37.45 1555.66 0 0 60.83 -120.36 0c36.79,24.87 61.1,67.16 61.93,114.87l0.63 36.5zm-1266.46 43.33l-288.11 0c-13.42,0 -24.38,-10.97 -24.38,-24.38l0 24.38 -294.38 0 0 330.74 606.86 0 0 -330.74zm0 380.22l-606.86 0 0 150.77 606.86 0 0 -150.77zm1241.71 446.08l0 142.27 133.1 0 0 -142.27 -133.1 0zm-1898.06 -826.3l-143.49 0 0 968.57 143.49 0 0 -968.57zm-190.38 1008.39l2295.2 0c9.09,0 16.53,7.43 16.53,16.53l0 94.87c0,9.09 -7.43,16.53 -16.53,16.53l-2295.2 0c-9.09,0 -16.53,-7.43 -16.53,-16.53l0 -94.87c0,-9.09 7.43,-16.53 16.53,-16.53zm396.56 -1504.07l19.39 0c9.2,0 16.72,7.51 16.72,16.72l0 218.06c0,9.2 -7.51,16.72 -16.72,16.72l-19.39 0c-9.2,0 -16.72,-7.52 -16.72,-16.72l0 -218.06c0,-9.2 7.52,-16.72 16.72,-16.72zm-119.79 0l19.39 0c9.2,0 16.72,7.51 16.72,16.72l0 218.06c0,9.2 -7.51,16.72 -16.72,16.72l-19.39 0c-9.2,0 -16.72,-7.52 -16.72,-16.72l0 -218.06c0,-9.2 7.52,-16.72 16.72,-16.72zm-119.79 0l19.39 0c9.2,0 16.72,7.51 16.72,16.72l0 218.06c0,9.2 -7.51,16.72 -16.72,16.72l-19.39 0c-9.2,0 -16.72,-7.52 -16.72,-16.72l0 -218.06c0,-9.2 7.52,-16.72 16.72,-16.72zm-119.79 0l19.39 0c9.19,0 16.72,7.51 16.72,16.72l0 218.06c0,9.2 -7.52,16.72 -16.72,16.72l-19.39 0c-9.2,0 -16.72,-7.52 -16.72,-16.72l0 -218.06c0,-9.2 7.52,-16.72 16.72,-16.72zm369.06 324.41c16.8,0 30.41,13.62 30.41,30.42 0,16.8 -13.62,30.41 -30.41,30.41 -16.8,0 -30.41,-13.62 -30.41,-30.41 0,-16.8 13.62,-30.42 30.41,-30.42zm-119.79 0c16.8,0 30.41,13.62 30.41,30.42 0,16.8 -13.62,30.41 -30.41,30.41 -16.8,0 -30.41,-13.62 -30.41,-30.41 0,-16.8 13.62,-30.42 30.41,-30.42zm-119.79 0c16.8,0 30.41,13.62 30.41,30.42 0,16.8 -13.62,30.41 -30.41,30.41 -16.8,0 -30.42,-13.62 -30.42,-30.41 0,-16.8 13.62,-30.42 30.42,-30.42zm-119.79 0c16.8,0 30.41,13.62 30.41,30.42 0,16.8 -13.62,30.41 -30.41,30.41 -16.8,0 -30.42,-13.62 -30.42,-30.41 0,-16.8 13.62,-30.42 30.42,-30.42zm1.77 -441.97l350.04 0c47.77,0 86.85,39.09 86.85,86.86l0 482.96 -523.75 0 0 -482.96c0,-47.77 39.08,-86.86 86.86,-86.86z"/>
   <path class="fil1" d="M1261.56 1340.86l-7.64 0 0 -45.66 929.86 0 -12.34 -705.77c-1.14,-65.75 -53.82,-119.57 -119.57,-119.57l-111.85 0 -1005.79 0c37.06,24.86 61.57,67.14 61.57,114.87l0 518.54 0 77.37 0 174.37c20.09,52.59 71.16,90.2 130.59,90.2 64.64,0 119.38,-44.49 135.15,-104.35z"/>
  </g>
  <path class="fil2" d="M2378.2 1445.21l0 -0.56c59.17,-5.24 108.04,-47.78 122.8,-103.79l-125.99 0 -49.49 0 -1025.33 0c-6.08,41.05 -26.49,77.6 -55.95,104.35l1123.99 0 6.77 0 3.19 0z"/>
 </g>
</svg>
