<svg width="138" height="121" xmlns="http://www.w3.org/2000/svg" xmlns:xlink="http://www.w3.org/1999/xlink" overflow="hidden"><defs><clipPath id="clip0"><rect x="6060" y="2585" width="138" height="121"/></clipPath></defs><g clip-path="url(#clip0)" transform="translate(-6060 -2585)"><path d="M6082.04 2585 6062.29 2585 6060 2587.29 6060 2592.89 6062.29 2595.18 6075.85 2595.18 6095.99 2659.8 6090.04 2661.85 6085.25 2665.75 6082.06 2671.07 6080.9 2677.37 6082.23 2684.11 6085.87 2689.67 6091.28 2693.53 6097.99 2695.16 6097.92 2695.16 6100.19 2699.44 6103.61 2702.82 6107.92 2705.03 6112.88 2705.82 6117.84 2705.03 6122.16 2702.82 6125.58 2699.44 6127.32 2696.14 6109.49 2696.14 6106.74 2693.39 6106.74 2686.6 6107.63 2685.71 6097.64 2685.71 6091.19 2677.37 6091.85 2674.17 6091.87 2674.03 6093.72 2671.29 6096.46 2669.44 6099.81 2668.76 6184.1 2668.76 6185.71 2666.39 6197.81 2618.56 6194.83 2616.18 6093.05 2616.18 6084.58 2589.05 6084.1 2586.74 6082.04 2585Z" fill="#FFFFFF" fill-rule="evenodd"/><path d="M6161.18 2695.16 6150.59 2695.16 6152.85 2699.44 6156.27 2702.82 6160.59 2705.03 6165.55 2705.82 6170.51 2705.03 6174.83 2702.82 6178.25 2699.44 6180 2696.14 6162.16 2696.14 6161.18 2695.16Z" fill="#FFFFFF" fill-rule="evenodd"/><path d="M6127.24 2683.85 6116.27 2683.85 6119.02 2686.6 6119.02 2693.39 6116.27 2696.14 6127.32 2696.14 6127.84 2695.16 6161.18 2695.16 6159.41 2693.39 6159.41 2686.6 6160.02 2685.99 6128.19 2685.99 6127.24 2683.85Z" fill="#FFFFFF" fill-rule="evenodd"/><path d="M6179.91 2683.85 6168.94 2683.85 6171.69 2686.6 6171.69 2693.39 6168.94 2696.14 6180 2696.14 6180.51 2695.16 6189.98 2695.16 6192.05 2693.09 6192.05 2688.05 6189.98 2685.99 6180.86 2685.99 6179.91 2683.85Z" fill="#FFFFFF" fill-rule="evenodd"/><path d="M6165.55 2674.17 6160.31 2675.06 6155.8 2677.53 6152.35 2681.27 6150.24 2685.99 6160.02 2685.99 6162.16 2683.85 6179.91 2683.85 6178.76 2681.27 6175.3 2677.53 6170.8 2675.06 6165.55 2674.17Z" fill="#FFFFFF" fill-rule="evenodd"/><path d="M6112.88 2674.17 6107.56 2675.06 6107.66 2675.06 6103.24 2677.44 6099.79 2681.1 6097.64 2685.71 6107.63 2685.71 6109.49 2683.85 6127.24 2683.85 6126.08 2681.27 6122.63 2677.53 6118.13 2675.06 6112.88 2674.17Z" fill="#FFFFFF" fill-rule="evenodd"/></g></svg>