<?xml version="1.0" encoding="UTF-8"?>
<!DOCTYPE svg PUBLIC "-//W3C//DTD SVG 1.1//EN" "http://www.w3.org/Graphics/SVG/1.1/DTD/svg11.dtd">
<!-- Creator: CorelDRAW -->
<svg xmlns="http://www.w3.org/2000/svg" xml:space="preserve" width="24.1234mm" height="20.5287mm" version="1.1" style="shape-rendering:geometricPrecision; text-rendering:geometricPrecision; image-rendering:optimizeQuality; fill-rule:evenodd; clip-rule:evenodd"
viewBox="0 0 152.42 129.7"
 xmlns:xlink="http://www.w3.org/1999/xlink"
 xmlns:xodm="http://www.corel.com/coreldraw/odm/2003">
 <defs>
  <style type="text/css">
   <![CDATA[
    .fil0 {fill:#007136}
    .fil1 {fill:#00C875}
   ]]>
  </style>
 </defs>
 <g id="Слой_x0020_1">
  <metadata id="CorelCorpID_0Corel-Layer"/>
  <g id="_2296224097072">
   <path class="fil0" d="M40.31 0l71.05 0c1.06,0 1.93,0.87 1.93,1.93l0 10.99 5.83 0c4.27,0 7.77,3.49 7.77,7.77l0 20.11 2.1 0 0 0.13c1.3,-0.74 2.79,-1.16 4.38,-1.16l10.16 0c4.89,0 8.89,4 8.89,8.89l0 54.59c0,1.06 -0.87,1.93 -1.93,1.93l-24.25 0 -1.76 0 -8.06 0 0 17.78c0.59,2.75 3.05,4.83 5.96,4.83l3.89 0 0.12 0 0 1.93 -0.12 0 -3.89 0 -63.17 0 -1.55 0 -2.46 0c-3.9,0 -7.17,-2.81 -7.88,-6.51l-0.15 0 0 -18.03 -19.23 0 -0.53 0 -25.47 0c-1.06,0 -1.93,-0.87 -1.93,-1.93l0 -54.59c0,-4.89 4,-8.89 8.89,-8.89l10.16 0c1.75,0 3.38,0.51 4.76,1.39l0 -0.36 0.97 0 0 -20.11c0,-4.27 3.49,-7.77 7.77,-7.77l5.83 0 0 -10.99c0,-1.06 0.87,-1.93 1.93,-1.93zm0.75 73.96l63.31 0 4.02 0c4.42,0 8.03,3.61 8.03,8.03l0 21.24 8.06 0 0 -36.82 -96.55 0 0 36.82 6.44 0 0 -14.65c0,-3.8 3.11,-6.9 6.9,-6.9l5.89 0c-0.16,-3.21 -2.84,-5.79 -6.09,-5.79l-1.29 0 -2.73 0 0 -1.93 2.73 0 1.29 0zm63.31 1.93l-58.1 0c1.72,1.48 2.82,3.67 2.82,6.1l0 6.24 0 0 0 33.44c0,3.35 2.75,6.1 6.1,6.1l2.46 0 1.55 0 57.96 0c-1.36,-1.16 -2.32,-2.76 -2.68,-4.58l-0.01 0 0 -0.06c-0.09,-0.48 -0.14,-0.97 -0.14,-1.47l0 -33.44 0.14 0 0 -6.24c0,-3.35 -2.75,-6.1 -6.1,-6.1l-4.02 0zm-57.21 7.72l-5.89 0c-2.73,0 -4.97,2.24 -4.97,4.97l0 14.65 10.86 0 0 -19.62zm60.94 -34.33c1.89,0 3.43,1.53 3.43,3.43 0,1.89 -1.53,3.43 -3.43,3.43 -1.89,0 -3.43,-1.54 -3.43,-3.43 0,-1.89 1.54,-3.43 3.43,-3.43zm-11.05 0c1.89,0 3.43,1.53 3.43,3.43 0,1.89 -1.53,3.43 -3.43,3.43 -1.89,0 -3.43,-1.54 -3.43,-3.43 0,-1.89 1.54,-3.43 3.43,-3.43zm-11.05 0c1.89,0 3.43,1.53 3.43,3.43 0,1.89 -1.53,3.43 -3.43,3.43 -1.89,0 -3.43,-1.54 -3.43,-3.43 0,-1.89 1.54,-3.43 3.43,-3.43zm-11.05 0c1.89,0 3.43,1.53 3.43,3.43 0,1.89 -1.53,3.43 -3.43,3.43 -1.89,0 -3.43,-1.54 -3.43,-3.43 0,-1.89 1.53,-3.43 3.43,-3.43zm-35.25 -1.34l25.91 0c0.5,0 0.91,0.41 0.91,0.91l0 9.27c0,0.5 -0.41,0.91 -0.91,0.91l-25.91 0c-0.5,0 -0.91,-0.41 -0.91,-0.91l0 -9.27c0,-0.5 0.41,-0.91 0.91,-0.91zm1.02 1.93l23.87 0 0 7.24 -23.87 0 0 -7.24zm83.77 14.61l0 -15.83c0,-2.27 0.86,-4.35 2.27,-5.92l-15.4 0 -71.05 0 -14.65 0c1.41,1.57 2.28,3.65 2.28,5.92l0 15.83 96.55 0zm0.48 -23.68l0 -20.11c0,-3.21 -2.63,-5.83 -5.83,-5.83l-5.83 0 0 25.94 11.67 0zm-86.58 0l0 -25.94 -5.83 0c-3.21,0 -5.83,2.63 -5.83,5.83l0 20.11 11.67 0zm88.03 62.44l0 -54.59c0,-3.82 3.13,-6.95 6.95,-6.95l10.16 0c3.82,0 6.95,3.13 6.95,6.95l0 54.59 -24.07 0zm-100.41 0l0 -54.59c0,-3.82 -3.13,-6.95 -6.95,-6.95l-10.16 0c-3.82,0 -6.95,3.13 -6.95,6.95l0 54.59 24.07 0zm14.31 -101.31l71.05 0 0 10.99 0 27.87 -71.05 0 0 -27.87 0 -10.99z"/>
   <path class="fil1" d="M104.37 75.9l-58.1 0c1.72,1.48 2.82,3.67 2.82,6.1l0 6.24 0 0 0 33.44c0,3.35 2.75,6.1 6.1,6.1l2.46 0 1.55 0 57.96 0c-1.36,-1.16 -2.32,-2.76 -2.68,-4.58l-0.01 0 0 -0.06c-0.09,-0.48 -0.14,-0.97 -0.14,-1.47l0 -33.44 0.14 0 0 -6.24c0,-3.35 -2.75,-6.1 -6.1,-6.1l-4.02 0z"/>
  </g>
 </g>
</svg>
