<?xml version="1.0" encoding="UTF-8"?>
<!DOCTYPE svg PUBLIC "-//W3C//DTD SVG 1.1//EN" "http://www.w3.org/Graphics/SVG/1.1/DTD/svg11.dtd">
<!-- Creator: CorelDRAW -->
<svg xmlns="http://www.w3.org/2000/svg" xml:space="preserve" width="31.4953mm" height="28.688mm" version="1.1" style="shape-rendering:geometricPrecision; text-rendering:geometricPrecision; image-rendering:optimizeQuality; fill-rule:evenodd; clip-rule:evenodd"
viewBox="0 0 314.4 286.38"
 xmlns:xlink="http://www.w3.org/1999/xlink"
 xmlns:xodm="http://www.corel.com/coreldraw/odm/2003">
 <defs>
  <style type="text/css">
   <![CDATA[
    .fil1 {fill:#007136}
    .fil0 {fill:#00C875;fill-rule:nonzero}
   ]]>
  </style>
 </defs>
 <g id="Слой_x0020_1">
  <metadata id="CorelCorpID_0Corel-Layer"/>
  <g id="_2296370755200">
   <path class="fil0" d="M190.89 222.74l-93.37 0 -13.41 43.95 -84.12 0 100.38 -266.69 90.2 0 99.95 266.69 -86.29 0 -13.35 -43.95zm-17.44 -57.73l-29.11 -95.85 -29.24 95.85 58.35 0z"/>
   <path class="fil1" d="M189.47 242.42l-73.05 0 -13.41 43.95 -99.59 0 4.74 -12.61 81.19 0 13.41 -43.95 82.88 0 3.83 12.61zm10.74 -236.9l8.93 0 105.25 280.85 -101.75 0 -3.83 -12.61 91.92 0 -100.53 -268.25zm-47.16 116.69l-10.89 35.71 -17.5 0 19.66 -64.46 8.73 28.75z"/>
  </g>
 </g>
</svg>
