<?xml version="1.0" encoding="UTF-8"?>
<!DOCTYPE svg PUBLIC "-//W3C//DTD SVG 1.1//EN" "http://www.w3.org/Graphics/SVG/1.1/DTD/svg11.dtd">
<!-- Creator: CorelDRAW -->
<svg xmlns="http://www.w3.org/2000/svg" xml:space="preserve" width="80.155mm" height="29.4909mm" version="1.1" style="shape-rendering:geometricPrecision; text-rendering:geometricPrecision; image-rendering:optimizeQuality; fill-rule:evenodd; clip-rule:evenodd"
viewBox="0 0 1250.61 460.13"
 xmlns:xlink="http://www.w3.org/1999/xlink"
 xmlns:xodm="http://www.corel.com/coreldraw/odm/2003">
 <defs>
  <style type="text/css">
   <![CDATA[
    .str0 {stroke:#373A34;stroke-width:0.09;stroke-miterlimit:22.9256}
    .fil8 {fill:none;fill-rule:nonzero}
    .fil5 {fill:#697166}
    .fil4 {fill:#4E534B}
    .fil3 {fill:#373A34}
    .fil2 {fill:#009853}
    .fil1 {fill:#006E3F}
    .fil0 {fill:#005734}
    .fil7 {fill:#373A34;fill-rule:nonzero}
    .fil6 {fill:#005734;fill-rule:nonzero}
   ]]>
  </style>
 </defs>
 <g id="Слой_x0020_1">
  <metadata id="CorelCorpID_0Corel-Layer"/>
  <g id="_2295402361792">
   <polygon class="fil0" points="-0,336.51 32.14,356.95 32.17,144.31 32.17,144.31 -0,123.84 "/>
   <polygon class="fil1" points="232.08,223.35 194.24,247.46 194.24,287.99 232.08,263.91 "/>
   <path class="fil1" d="M388.08 336.42c0.08,-70.87 0.12,-141.74 0.18,-212.62l-32.09 20.42 0.07 179.17 -162.12 103.26 -0 33.47c64.72,-41.16 129.22,-82.59 193.96,-123.7z"/>
   <polygon class="fil2" points="231.96,223.17 194.12,247.28 155.43,222.65 194.06,197.76 "/>
   <polygon class="fil2" points="356.17,144.05 388.26,123.63 194.12,0 -0,123.66 32.17,144.13 70.81,119.47 70.8,119.47 193.95,40.87 316.63,119.14 316.48,119.24 "/>
   <polygon class="fil0" points="194,460.13 194,426.62 193.88,369.59 194,289.07 194,247.46 155.31,222.83 155.31,435.3 "/>
   <polygon class="fil3" points="49.2,367.79 138.44,424.51 138.43,212.04 49.18,155.2 "/>
   <polygon class="fil4" points="338.25,155.61 250.13,211.66 250.03,273.72 213.53,296.99 213.41,392.74 338.1,313.35 "/>
   <path class="fil5" d="M250.13 211.48l88.13 -56.05c-47.88,-31.32 -96.06,-62.26 -144.3,-93.04 -48.27,30.81 -96.5,61.82 -144.77,92.62l89.25 56.84 55.56 -35.57c18.45,11.78 37.54,23.55 56.14,35.19z"/>
   <path class="fil6" d="M453.98 122.59l64.98 0c14.72,0 26.93,3.35 36.67,10.02 9.74,6.7 14.63,18.38 14.63,35.07 0,10.49 -1.91,19.01 -5.77,25.56 -3.82,6.51 -8.58,11.27 -14.25,14.22 -5.67,2.94 -11.12,4.79 -16.28,5.54 -5.2,0.75 -10.46,1.13 -15.76,1.13l-31.35 0 0 47.88 -32.88 0 0 -139.42zm32.88 27.24l0 37.24 25.78 0c7.77,0 13.65,-1.44 17.57,-4.29 3.91,-2.85 5.89,-7.83 5.89,-14.91 0,-6.64 -1.88,-11.31 -5.67,-14 -3.79,-2.69 -9.74,-4.04 -17.79,-4.04l-25.78 0zm139.02 -27.24l33.26 0 52.43 139.42 -34.76 0 -9.05 -26.09 -50.54 0 -8.8 26.09 -34.76 0 52.24 -139.42zm-1.5 89.66l36.23 0 -18.04 -53.24 -18.19 53.24zm133.69 -31.03l47.69 -58.62 38.71 0 -56.02 63.67 59.19 75.75 -40.37 0 -49.2 -68.21 -0.6 0 0 68.21 -32.88 0 0 -139.42 32.88 0 0 58.62 0.6 0zm158.21 9.61l24.02 -68.24 35.74 0 -45.32 110.86c-3.85,9.39 -8.14,16.35 -12.9,20.92 -4.76,4.54 -9.43,7.39 -14.06,8.55 -4.61,1.16 -10.02,1.72 -16.22,1.72 -6.89,0 -13.9,-0.88 -21.01,-2.63l0 -27.03c4.32,1.25 9.05,1.88 14.25,1.88 9.43,0 15.25,-4.45 17.47,-13.34l-51.67 -100.93 39.27 0 30.44 68.24zm72.75 -68.24l64.98 0c14.72,0 26.94,3.35 36.67,10.02 9.74,6.7 14.62,18.38 14.62,35.07 0,10.49 -1.91,19.01 -5.76,25.56 -3.82,6.51 -8.58,11.27 -14.25,14.22 -5.67,2.94 -11.12,4.79 -16.29,5.54 -5.2,0.75 -10.46,1.13 -15.75,1.13l-31.35 0 0 47.88 -32.88 0 0 -139.42zm32.88 27.24l0 37.24 25.77 0c7.77,0 13.65,-1.44 17.57,-4.29 3.91,-2.85 5.89,-7.83 5.89,-14.91 0,-6.64 -1.88,-11.31 -5.67,-14 -3.79,-2.69 -9.74,-4.04 -17.79,-4.04l-25.77 0zm195.95 62.95l32.72 0c-1.25,13.37 -6.45,25.68 -15.59,36.89 -9.15,11.24 -25.09,16.85 -47.76,16.85 -8.86,0 -17.22,-1.07 -25.18,-3.23 -7.92,-2.16 -15.15,-5.89 -21.67,-11.18 -6.48,-5.29 -11.68,-12.65 -15.56,-22.08 -3.88,-9.46 -5.82,-21.14 -5.82,-35.07 0,-15.19 2.41,-28.5 7.26,-39.9 4.86,-11.43 12.31,-20.32 22.36,-26.68 10.08,-6.36 22.58,-9.55 37.48,-9.55 15.94,0 28.56,2.85 37.83,8.52 9.27,5.7 15.66,12.37 19.2,20.07 3.54,7.67 5.51,15.16 5.95,22.52l-32.35 0c-0.62,-5.76 -3,-11.21 -7.17,-16.35 -4.16,-5.14 -11.49,-7.7 -21.99,-7.7 -11.02,0 -19.29,4.26 -24.8,12.75 -5.51,8.52 -8.27,20.17 -8.27,34.98 0,5.11 0.69,11.02 2.04,17.73 1.38,6.7 4.57,13.03 9.68,18.98 5.07,5.98 12.59,8.96 22.52,8.96 6.89,0 12.43,-1.44 16.69,-4.35 4.23,-2.91 7.27,-6.36 9.08,-10.3 1.85,-3.98 2.98,-7.89 3.35,-11.84z"/>
   <path class="fil7" d="M454.13 307.36l12.07 0c1.16,0 2.19,0.04 3.09,0.13 0.91,0.09 1.93,0.32 3.08,0.69 1.14,0.37 2.09,0.89 2.85,1.54 0.77,0.65 1.42,1.57 1.95,2.77 0.53,1.2 0.8,2.62 0.8,4.26 0,2.97 -0.94,5.34 -2.81,7.1 -1.88,1.76 -4.87,2.64 -9,2.64l-6.49 0 0 11.16 -5.54 0 0 -30.29zm5.54 4.59l0 9.95 6.44 0c0.81,0 1.5,-0.05 2.08,-0.15 0.58,-0.1 1.21,-0.3 1.9,-0.58 0.69,-0.29 1.23,-0.79 1.6,-1.49 0.37,-0.71 0.56,-1.59 0.56,-2.66 0,-0.92 -0.15,-1.72 -0.45,-2.38 -0.3,-0.66 -0.66,-1.16 -1.06,-1.49 -0.41,-0.33 -0.92,-0.59 -1.54,-0.78 -0.62,-0.19 -1.15,-0.3 -1.58,-0.35 -0.43,-0.04 -0.92,-0.07 -1.47,-0.07l-6.49 0zm30.62 7.88l15.41 0 0 4.59 -15.41 0 0 8.65 17.66 0 0 4.59 -23.19 0 0 -30.29 22.72 0 0 4.59 -17.18 0 0 7.88zm29.32 1.17l12.16 -13.63 6.58 0 -13.41 13.98 14.54 16.31 -7.01 0 -12.85 -15.71 0 15.71 -5.54 0 0 -30.29 5.54 0 0 13.63zm23.31 16.66l0 -4.59c0.92,0.17 1.74,0.14 2.47,-0.09 0.72,-0.23 1.31,-0.57 1.77,-1.02 0.46,-0.45 0.86,-1.09 1.21,-1.93 0.35,-0.84 0.6,-1.62 0.76,-2.36 0.16,-0.74 0.29,-1.67 0.39,-2.81 0.1,-1.14 0.16,-2.08 0.17,-2.81 0.01,-0.74 0.02,-1.67 0.02,-2.79l0 -11.9 20.73 0 0 30.29 -5.54 0 0 -25.7 -9.65 0 0 8.96c0,1.88 -0.05,3.51 -0.15,4.91 -0.1,1.4 -0.39,2.99 -0.86,4.76 -0.48,1.77 -1.13,3.2 -1.97,4.26 -0.84,1.07 -2.06,1.9 -3.66,2.49 -1.6,0.59 -3.5,0.7 -5.69,0.32zm40.88 -6.36l-2.21 6.36 -5.93 0 11.43 -30.29 5.54 0 11.42 30.29 -5.93 0 -2.21 -6.36 -12.12 0zm1.47 -4.59l9.17 0 -4.59 -13.46 -4.59 13.46zm38.45 10.95l-8.92 -23.97 -0.09 0 0.09 1.17 0 22.8 -5.54 0 0 -30.29 8.27 0 8.26 22.98 8.26 -22.98 8.26 0 0 30.29 -5.54 0 0 -22.8 0.09 -1.17 -0.09 0 -8.92 23.97 -4.15 0zm33.21 -13.59l0 13.59 -5.54 0 0 -30.29 5.54 0 0 12.12 13.5 0 0 -12.12 5.54 0 0 30.29 -5.54 0 0 -13.59 -13.5 0zm39.56 -17.55c0.53,-0.04 1.09,-0.07 1.66,-0.07 0.58,0 1.13,0.02 1.67,0.07 0.53,0.04 1.33,0.17 2.4,0.39 1.07,0.22 2.03,0.52 2.9,0.91 0.87,0.39 1.81,0.99 2.83,1.8 1.03,0.81 1.88,1.75 2.58,2.83 0.69,1.08 1.27,2.49 1.75,4.24 0.48,1.75 0.71,3.69 0.71,5.82 0,2.13 -0.24,4.07 -0.71,5.82 -0.48,1.74 -1.06,3.16 -1.75,4.24 -0.69,1.08 -1.55,2.03 -2.58,2.83 -1.02,0.81 -1.97,1.41 -2.83,1.8 -0.86,0.39 -1.83,0.69 -2.9,0.91 -1.07,0.22 -1.87,0.34 -2.4,0.39 -0.53,0.04 -1.09,0.07 -1.67,0.07 -0.58,0 -1.13,-0.02 -1.66,-0.07 -0.53,-0.04 -1.33,-0.17 -2.4,-0.39 -1.07,-0.22 -2.03,-0.52 -2.9,-0.91 -0.87,-0.39 -1.81,-0.99 -2.84,-1.8 -1.02,-0.81 -1.88,-1.75 -2.57,-2.83 -0.69,-1.08 -1.27,-2.5 -1.75,-4.24 -0.47,-1.75 -0.71,-3.69 -0.71,-5.82 0,-2.14 0.24,-4.08 0.71,-5.82 0.48,-1.74 1.06,-3.16 1.75,-4.24 0.69,-1.08 1.55,-2.03 2.57,-2.83 1.03,-0.81 1.97,-1.41 2.84,-1.8 0.86,-0.39 1.83,-0.69 2.9,-0.91 1.07,-0.22 1.87,-0.35 2.4,-0.39zm6.16 5.62c-1.24,-0.73 -2.74,-1.1 -4.5,-1.1 -1.76,0 -3.26,0.37 -4.5,1.1 -1.24,0.74 -2.17,1.71 -2.77,2.92 -0.61,1.21 -1.03,2.42 -1.27,3.64 -0.25,1.21 -0.37,2.48 -0.37,3.81 0,1.33 0.12,2.59 0.37,3.81 0.24,1.21 0.67,2.42 1.27,3.64 0.6,1.21 1.53,2.18 2.77,2.92 1.24,0.73 2.74,1.1 4.5,1.1 1.76,0 3.26,-0.37 4.5,-1.1 1.24,-0.74 2.17,-1.71 2.77,-2.92 0.61,-1.21 1.03,-2.42 1.27,-3.64 0.25,-1.21 0.37,-2.48 0.37,-3.81 0,-1.33 -0.12,-2.6 -0.37,-3.81 -0.24,-1.21 -0.67,-2.42 -1.27,-3.64 -0.6,-1.21 -1.53,-2.18 -2.77,-2.92zm17.47 16.16l0 -4.59 11.25 0 0 4.59 -11.25 0zm25.64 -16.36l0 25.7 -5.54 0 0 -30.29 24.49 0 0 30.29 -5.54 0 0 -25.7 -13.41 0zm28.02 -4.59l12.07 0c1.16,0 2.19,0.04 3.09,0.13 0.91,0.09 1.93,0.32 3.07,0.69 1.14,0.37 2.09,0.89 2.85,1.54 0.77,0.65 1.42,1.57 1.95,2.77 0.53,1.2 0.8,2.62 0.8,4.26 0,2.97 -0.94,5.34 -2.81,7.1 -1.87,1.76 -4.87,2.64 -9,2.64l-6.49 0 0 11.16 -5.54 0 0 -30.29zm5.54 4.59l0 9.95 6.45 0c0.81,0 1.5,-0.05 2.08,-0.15 0.58,-0.1 1.21,-0.3 1.9,-0.58 0.69,-0.29 1.23,-0.79 1.6,-1.49 0.37,-0.71 0.56,-1.59 0.56,-2.66 0,-0.92 -0.15,-1.72 -0.45,-2.38 -0.3,-0.66 -0.65,-1.16 -1.06,-1.49 -0.41,-0.33 -0.92,-0.59 -1.54,-0.78 -0.62,-0.19 -1.14,-0.3 -1.58,-0.35 -0.43,-0.04 -0.92,-0.07 -1.47,-0.07l-6.49 0zm36.53 -5.43c0.53,-0.04 1.09,-0.07 1.67,-0.07 0.58,0 1.13,0.02 1.66,0.07 0.53,0.04 1.33,0.17 2.4,0.39 1.07,0.22 2.03,0.52 2.9,0.91 0.87,0.39 1.81,0.99 2.84,1.8 1.02,0.81 1.88,1.75 2.57,2.83 0.69,1.08 1.27,2.49 1.75,4.24 0.48,1.75 0.71,3.69 0.71,5.82 0,2.13 -0.24,4.07 -0.71,5.82 -0.48,1.74 -1.06,3.16 -1.75,4.24 -0.69,1.08 -1.55,2.03 -2.57,2.83 -1.03,0.81 -1.97,1.41 -2.84,1.8 -0.86,0.39 -1.83,0.69 -2.9,0.91 -1.07,0.22 -1.87,0.34 -2.4,0.39 -0.53,0.04 -1.09,0.07 -1.66,0.07 -0.58,0 -1.13,-0.02 -1.67,-0.07 -0.53,-0.04 -1.33,-0.17 -2.4,-0.39 -1.07,-0.22 -2.03,-0.52 -2.9,-0.91 -0.87,-0.39 -1.81,-0.99 -2.84,-1.8 -1.02,-0.81 -1.88,-1.75 -2.57,-2.83 -0.69,-1.08 -1.27,-2.5 -1.75,-4.24 -0.47,-1.75 -0.71,-3.69 -0.71,-5.82 0,-2.14 0.24,-4.08 0.71,-5.82 0.48,-1.74 1.06,-3.16 1.75,-4.24 0.7,-1.08 1.55,-2.03 2.57,-2.83 1.03,-0.81 1.97,-1.41 2.84,-1.8 0.86,-0.39 1.83,-0.69 2.9,-0.91 1.07,-0.22 1.87,-0.35 2.4,-0.39zm6.16 5.62c-1.24,-0.73 -2.74,-1.1 -4.5,-1.1 -1.76,0 -3.26,0.37 -4.5,1.1 -1.24,0.74 -2.17,1.71 -2.77,2.92 -0.6,1.21 -1.03,2.42 -1.27,3.64 -0.25,1.21 -0.37,2.48 -0.37,3.81 0,1.33 0.12,2.59 0.37,3.81 0.24,1.21 0.67,2.42 1.27,3.64 0.6,1.21 1.53,2.18 2.77,2.92 1.24,0.73 2.74,1.1 4.5,1.1 1.76,0 3.26,-0.37 4.5,-1.1 1.24,-0.74 2.17,-1.71 2.77,-2.92 0.61,-1.21 1.03,-2.42 1.28,-3.64 0.24,-1.21 0.37,-2.48 0.37,-3.81 0,-1.33 -0.12,-2.6 -0.37,-3.81 -0.25,-1.21 -0.67,-2.42 -1.28,-3.64 -0.6,-1.21 -1.53,-2.18 -2.77,-2.92zm23.22 17.37l14.41 -22.15 5.41 0 0 30.29 -5.54 0 0 -22.15 -14.41 22.15 -5.41 0 0 -30.29 5.54 0 0 22.15zm27.16 -2.21l5.49 0c0,0.72 0.1,1.43 0.3,2.12 0.2,0.69 0.56,1.4 1.08,2.12 0.52,0.72 1.32,1.31 2.4,1.75 1.09,0.45 2.4,0.67 3.96,0.67 2.1,0 3.76,-0.44 4.95,-1.32 1.2,-0.88 1.8,-2.13 1.8,-3.74 0,-3.17 -1.99,-4.76 -5.97,-4.76l-4.15 0 0 -4.59 3.59 0c3.55,0 5.32,-1.33 5.32,-3.98 0,-3.03 -2.05,-4.54 -6.15,-4.54 -4.36,0 -6.62,1.75 -6.79,5.24l-5.5 0c0.11,-6.55 4.37,-9.82 12.77,-9.82 0.98,0 1.92,0.05 2.81,0.15 0.9,0.1 1.88,0.34 2.96,0.71 1.09,0.37 2.02,0.86 2.81,1.45 0.79,0.59 1.46,1.43 1.99,2.51 0.53,1.08 0.8,2.33 0.8,3.74 0,1.88 -0.49,3.41 -1.47,4.61 -0.98,1.2 -2.18,1.88 -3.59,2.06l0 0.09c1.79,0.26 3.28,1.05 4.47,2.36 1.2,1.31 1.8,3.09 1.8,5.34 0,0.81 -0.09,1.59 -0.28,2.34 -0.19,0.75 -0.56,1.55 -1.12,2.4 -0.56,0.85 -1.29,1.58 -2.19,2.19 -0.89,0.61 -2.13,1.12 -3.72,1.54 -1.59,0.42 -3.42,0.63 -5.49,0.63 -8.28,0 -12.58,-3.75 -12.89,-11.25zm33.6 -19.95l14.28 0c1.47,0 2.77,0.17 3.9,0.5 1.12,0.33 2.02,0.75 2.68,1.25 0.66,0.51 1.2,1.11 1.6,1.82 0.4,0.71 0.68,1.38 0.83,2.03 0.14,0.65 0.21,1.33 0.21,2.05 0,1.67 -0.47,3.11 -1.4,4.3 -0.94,1.2 -2.14,1.93 -3.62,2.19l0 0.09c0.72,0.12 1.41,0.32 2.06,0.63 0.65,0.3 1.31,0.73 1.99,1.28 0.68,0.55 1.22,1.31 1.62,2.29 0.4,0.98 0.6,2.11 0.6,3.38 0,1.24 -0.17,2.34 -0.5,3.29 -0.33,0.95 -0.79,1.72 -1.39,2.32 -0.59,0.59 -1.23,1.09 -1.93,1.49 -0.69,0.4 -1.49,0.7 -2.4,0.89 -0.91,0.19 -1.73,0.32 -2.47,0.39 -0.74,0.07 -1.54,0.11 -2.4,0.11l-13.67 0 0 -30.29zm5.54 4.59l0 7.7 7.31 0c3.29,0 4.93,-1.2 4.93,-3.59 0,-2.74 -1.69,-4.11 -5.06,-4.11l-7.18 0zm0 12.29l0 8.83 7.57 0c1.88,0 3.33,-0.32 4.37,-0.97 1.04,-0.65 1.56,-1.83 1.56,-3.53 0,-0.95 -0.18,-1.74 -0.54,-2.36 -0.36,-0.62 -0.87,-1.06 -1.54,-1.32 -0.66,-0.26 -1.27,-0.43 -1.82,-0.52 -0.55,-0.09 -1.18,-0.13 -1.9,-0.13l-7.7 0zm38.56 -17.72c0.53,-0.04 1.09,-0.07 1.67,-0.07 0.58,0 1.13,0.02 1.66,0.07 0.53,0.04 1.33,0.17 2.4,0.39 1.07,0.22 2.04,0.52 2.9,0.91 0.86,0.39 1.81,0.99 2.83,1.8 1.03,0.81 1.88,1.75 2.58,2.83 0.69,1.08 1.27,2.49 1.75,4.24 0.47,1.75 0.71,3.69 0.71,5.82 0,2.13 -0.24,4.07 -0.71,5.82 -0.48,1.74 -1.06,3.16 -1.75,4.24 -0.69,1.08 -1.55,2.03 -2.58,2.83 -1.02,0.81 -1.97,1.41 -2.83,1.8 -0.86,0.39 -1.83,0.69 -2.9,0.91 -1.07,0.22 -1.87,0.34 -2.4,0.39 -0.53,0.04 -1.09,0.07 -1.66,0.07 -0.58,0 -1.13,-0.02 -1.67,-0.07 -0.54,-0.04 -1.33,-0.17 -2.4,-0.39 -1.07,-0.22 -2.03,-0.52 -2.9,-0.91 -0.87,-0.39 -1.81,-0.99 -2.84,-1.8 -1.02,-0.81 -1.88,-1.75 -2.57,-2.83 -0.69,-1.08 -1.28,-2.5 -1.75,-4.24 -0.48,-1.75 -0.71,-3.69 -0.71,-5.82 0,-2.14 0.24,-4.08 0.71,-5.82 0.47,-1.74 1.06,-3.16 1.75,-4.24 0.69,-1.08 1.55,-2.03 2.57,-2.83 1.03,-0.81 1.97,-1.41 2.84,-1.8 0.86,-0.39 1.83,-0.69 2.9,-0.91 1.07,-0.22 1.87,-0.35 2.4,-0.39zm6.16 5.62c-1.24,-0.73 -2.74,-1.1 -4.5,-1.1 -1.76,0 -3.26,0.37 -4.5,1.1 -1.24,0.74 -2.16,1.71 -2.77,2.92 -0.61,1.21 -1.03,2.42 -1.28,3.64 -0.24,1.21 -0.37,2.48 -0.37,3.81 0,1.33 0.12,2.59 0.37,3.81 0.24,1.21 0.67,2.42 1.28,3.64 0.6,1.21 1.53,2.18 2.77,2.92 1.24,0.73 2.74,1.1 4.5,1.1 1.76,0 3.26,-0.37 4.5,-1.1 1.24,-0.74 2.16,-1.71 2.77,-2.92 0.6,-1.21 1.03,-2.42 1.27,-3.64 0.24,-1.21 0.37,-2.48 0.37,-3.81 0,-1.33 -0.13,-2.6 -0.37,-3.81 -0.24,-1.21 -0.67,-2.42 -1.27,-3.64 -0.61,-1.21 -1.53,-2.18 -2.77,-2.92zm41.27 20.92l4.15 0 -0.26 11.42 -4.85 0 0 -6.84 -22.02 0 0 6.84 -4.85 0 -0.26 -11.42 2.6 0c3.49,-4.47 5.24,-10.86 5.24,-19.17l0 -6.53 20.25 0 0 25.7zm-5.54 -21.12l-9.17 0 0 3.64c0,3.64 -0.29,6.79 -0.86,9.46 -0.58,2.67 -1.69,5.34 -3.33,8.03l13.37 0 0 -21.12zm35.81 15.36l5.49 0c-0.11,1.04 -0.3,2.03 -0.56,2.96 -0.26,0.94 -0.7,1.93 -1.32,2.98 -0.62,1.05 -1.39,1.95 -2.31,2.71 -0.92,0.75 -2.15,1.37 -3.68,1.86 -1.53,0.49 -3.28,0.74 -5.24,0.74 -0.55,0 -1.08,-0.01 -1.6,-0.04 -0.52,-0.03 -1.31,-0.15 -2.38,-0.37 -1.07,-0.22 -2.04,-0.5 -2.92,-0.86 -0.88,-0.36 -1.85,-0.93 -2.9,-1.71 -1.05,-0.78 -1.94,-1.69 -2.66,-2.75 -0.72,-1.05 -1.33,-2.42 -1.81,-4.11 -0.49,-1.69 -0.74,-3.58 -0.74,-5.69 0,-3 0.41,-5.6 1.21,-7.81 0.81,-2.21 1.93,-3.93 3.35,-5.17 1.43,-1.24 2.98,-2.15 4.65,-2.73 1.67,-0.58 3.51,-0.87 5.49,-0.87 1.99,0 3.76,0.24 5.3,0.71 1.55,0.48 2.78,1.08 3.7,1.8 0.92,0.72 1.69,1.58 2.29,2.57 0.6,1 1.03,1.94 1.25,2.83 0.23,0.89 0.37,1.82 0.43,2.77l-5.5 0c-0.09,-0.72 -0.27,-1.4 -0.54,-2.03 -0.27,-0.64 -0.67,-1.28 -1.19,-1.93 -0.52,-0.65 -1.28,-1.17 -2.27,-1.56 -1,-0.39 -2.16,-0.58 -3.49,-0.58 -1.61,0 -3.01,0.31 -4.19,0.93 -1.18,0.62 -2.1,1.49 -2.75,2.62 -0.65,1.12 -1.12,2.36 -1.41,3.7 -0.29,1.34 -0.43,2.85 -0.43,4.52 0,3.49 0.86,6.22 2.58,8.2 1.72,1.98 3.97,2.96 6.77,2.96 2.34,0 4.12,-0.66 5.34,-1.97 1.23,-1.31 1.9,-2.88 2.01,-4.69zm18.94 -15.36l-9.52 0 0 -4.59 24.58 0 0 4.59 -9.52 0 0 25.7 -5.54 0 0 -25.7zm21.01 -4.59l14.28 0c1.47,0 2.77,0.17 3.89,0.5 1.12,0.33 2.02,0.75 2.68,1.25 0.66,0.51 1.2,1.11 1.6,1.82 0.41,0.71 0.68,1.38 0.82,2.03 0.15,0.65 0.22,1.33 0.22,2.05 0,1.67 -0.47,3.11 -1.41,4.3 -0.94,1.2 -2.14,1.93 -3.62,2.19l0 0.09c0.72,0.12 1.41,0.32 2.06,0.63 0.65,0.3 1.32,0.73 1.99,1.28 0.67,0.55 1.22,1.31 1.62,2.29 0.4,0.98 0.6,2.11 0.6,3.38 0,1.24 -0.17,2.34 -0.5,3.29 -0.33,0.95 -0.79,1.72 -1.38,2.32 -0.59,0.59 -1.23,1.09 -1.93,1.49 -0.69,0.4 -1.49,0.7 -2.4,0.89 -0.91,0.19 -1.73,0.32 -2.47,0.39 -0.73,0.07 -1.54,0.11 -2.4,0.11l-13.67 0 0 -30.29zm5.54 4.59l0 7.7 7.31 0c3.29,0 4.93,-1.2 4.93,-3.59 0,-2.74 -1.69,-4.11 -5.06,-4.11l-7.18 0zm0 12.29l0 8.83 7.57 0c1.87,0 3.33,-0.32 4.37,-0.97 1.04,-0.65 1.56,-1.83 1.56,-3.53 0,-0.95 -0.18,-1.74 -0.54,-2.36 -0.36,-0.62 -0.87,-1.06 -1.54,-1.32 -0.66,-0.26 -1.27,-0.43 -1.82,-0.52 -0.55,-0.09 -1.18,-0.13 -1.9,-0.13l-7.7 0zm32.65 -4.41l15.4 0 0 4.59 -15.4 0 0 8.65 17.65 0 0 4.59 -23.19 0 0 -30.29 22.72 0 0 4.59 -17.18 0 0 7.88zm29.32 4.24l0 13.59 -5.54 0 0 -30.29 5.54 0 0 12.12 13.5 0 0 -12.12 5.54 0 0 30.29 -5.54 0 0 -13.59 -13.5 0zm33.65 0l0 13.59 -5.54 0 0 -30.29 5.54 0 0 12.12 13.5 0 0 -12.12 5.54 0 0 30.29 -5.54 0 0 -13.59 -13.5 0zm32.39 7.23l-2.21 6.36 -5.93 0 11.42 -30.29 5.54 0 11.42 30.29 -5.93 0 -2.2 -6.36 -12.12 0zm1.47 -4.59l9.17 0 -4.59 -13.46 -4.59 13.46zm42.26 -0.35l-5.28 0 -7.27 11.29 -7.01 0 8.57 -11.9c-0.86,-0.12 -1.7,-0.32 -2.49,-0.61 -0.79,-0.29 -1.64,-0.74 -2.55,-1.36 -0.91,-0.62 -1.64,-1.53 -2.18,-2.73 -0.55,-1.2 -0.83,-2.6 -0.83,-4.22 0,-1.73 0.3,-3.22 0.89,-4.46 0.59,-1.24 1.29,-2.18 2.1,-2.81 0.81,-0.64 1.82,-1.12 3.05,-1.47 1.23,-0.34 2.26,-0.56 3.09,-0.63 0.84,-0.07 1.82,-0.11 2.94,-0.11l12.51 0 0 30.29 -5.54 0 0 -11.29zm0 -14.41l-7.23 0c-4.07,0 -6.1,1.67 -6.1,5.02 0,3.2 2.16,4.8 6.49,4.8l6.84 0 0 -9.82zm-518.76 59.24l12.16 -13.63 6.58 0 -13.41 13.98 14.54 16.31 -7.01 0 -12.85 -15.71 0 15.71 -5.54 0 0 -30.29 5.54 0 0 13.63zm36.53 -14.47c0.54,-0.04 1.09,-0.07 1.67,-0.07 0.58,0 1.13,0.02 1.66,0.07 0.53,0.04 1.33,0.17 2.4,0.39 1.07,0.22 2.04,0.52 2.9,0.91 0.86,0.39 1.81,0.99 2.83,1.8 1.02,0.81 1.88,1.75 2.58,2.83 0.69,1.08 1.27,2.49 1.75,4.24 0.47,1.74 0.71,3.68 0.71,5.82 0,2.13 -0.24,4.07 -0.71,5.82 -0.48,1.74 -1.06,3.16 -1.75,4.24 -0.69,1.08 -1.56,2.03 -2.58,2.83 -1.03,0.81 -1.97,1.41 -2.83,1.8 -0.86,0.39 -1.83,0.69 -2.9,0.91 -1.07,0.22 -1.87,0.35 -2.4,0.39 -0.54,0.04 -1.09,0.07 -1.66,0.07 -0.58,0 -1.13,-0.02 -1.67,-0.07 -0.53,-0.04 -1.33,-0.17 -2.4,-0.39 -1.07,-0.22 -2.03,-0.52 -2.9,-0.91 -0.86,-0.39 -1.81,-0.99 -2.83,-1.8 -1.02,-0.81 -1.88,-1.75 -2.57,-2.83 -0.7,-1.08 -1.28,-2.49 -1.75,-4.24 -0.48,-1.75 -0.71,-3.69 -0.71,-5.82 0,-2.14 0.24,-4.08 0.71,-5.82 0.47,-1.75 1.06,-3.16 1.75,-4.24 0.69,-1.08 1.55,-2.03 2.57,-2.83 1.03,-0.81 1.97,-1.41 2.83,-1.8 0.87,-0.39 1.83,-0.69 2.9,-0.91 1.07,-0.22 1.87,-0.35 2.4,-0.39zm6.17 5.63c-1.24,-0.74 -2.74,-1.1 -4.5,-1.1 -1.76,0 -3.26,0.37 -4.5,1.1 -1.24,0.73 -2.16,1.71 -2.77,2.92 -0.6,1.21 -1.03,2.42 -1.27,3.64 -0.24,1.21 -0.37,2.48 -0.37,3.81 0,1.33 0.12,2.6 0.37,3.81 0.24,1.21 0.67,2.42 1.27,3.64 0.61,1.21 1.53,2.18 2.77,2.92 1.24,0.73 2.74,1.1 4.5,1.1 1.76,0 3.26,-0.37 4.5,-1.1 1.24,-0.74 2.16,-1.71 2.77,-2.92 0.6,-1.21 1.03,-2.42 1.27,-3.64 0.24,-1.21 0.37,-2.48 0.37,-3.81 0,-1.33 -0.12,-2.6 -0.37,-3.81 -0.24,-1.21 -0.67,-2.42 -1.27,-3.64 -0.61,-1.21 -1.53,-2.18 -2.77,-2.92zm32.13 25.51l-8.91 -23.97 -0.09 0 0.09 1.17 0 22.8 -5.54 0 0 -30.29 8.26 0 8.27 22.98 8.26 -22.98 8.26 0 0 30.29 -5.54 0 0 -22.8 0.09 -1.17 -0.09 0 -8.92 23.97 -4.15 0zm33.22 -25.7l0 25.7 -5.54 0 0 -30.29 24.49 0 0 30.29 -5.54 0 0 -25.7 -13.41 0zm32.31 19.34l-2.21 6.36 -5.93 0 11.42 -30.29 5.54 0 11.42 30.29 -5.93 0 -2.21 -6.36 -12.12 0zm1.47 -4.59l9.17 0 -4.59 -13.46 -4.59 13.46zm29.54 -2.64l0 13.59 -5.54 0 0 -30.29 5.54 0 0 12.12 13.5 0 0 -12.12 5.54 0 0 30.29 -5.54 0 0 -13.59 -13.5 0zm33.65 5.45l14.41 -22.16 5.41 0 0 30.29 -5.54 0 0 -22.15 -14.41 22.15 -5.41 0 0 -30.29 5.54 0 0 22.16zm47.15 -3.16l-5.28 0 -7.27 11.29 -7.01 0 8.57 -11.9c-0.86,-0.11 -1.69,-0.32 -2.49,-0.61 -0.79,-0.29 -1.65,-0.74 -2.55,-1.36 -0.91,-0.62 -1.64,-1.53 -2.19,-2.73 -0.55,-1.2 -0.82,-2.6 -0.82,-4.22 0,-1.73 0.3,-3.22 0.89,-4.46 0.59,-1.24 1.29,-2.18 2.1,-2.81 0.81,-0.63 1.82,-1.12 3.05,-1.47 1.22,-0.34 2.26,-0.56 3.09,-0.63 0.84,-0.07 1.82,-0.11 2.94,-0.11l12.51 0 0 30.29 -5.54 0 0 -11.29zm0 -14.41l-7.23 0c-4.07,0 -6.1,1.67 -6.1,5.02 0,3.2 2.16,4.8 6.49,4.8l6.84 0 0 -9.82z"/>
   <path class="fil8 str0" d="M454.13 307.36l12.07 0c1.16,0 2.19,0.04 3.09,0.13 0.91,0.09 1.93,0.32 3.08,0.69 1.14,0.37 2.09,0.89 2.85,1.54 0.77,0.65 1.42,1.57 1.95,2.77 0.53,1.2 0.8,2.62 0.8,4.26 0,2.97 -0.94,5.34 -2.81,7.1 -1.88,1.76 -4.87,2.64 -9,2.64l-6.49 0 0 11.16 -5.54 0 0 -30.29zm5.54 4.59l0 9.95 6.44 0c0.81,0 1.5,-0.05 2.08,-0.15 0.58,-0.1 1.21,-0.3 1.9,-0.58 0.69,-0.29 1.23,-0.79 1.6,-1.49 0.37,-0.71 0.56,-1.59 0.56,-2.66 0,-0.92 -0.15,-1.72 -0.45,-2.38 -0.3,-0.66 -0.66,-1.16 -1.06,-1.49 -0.41,-0.33 -0.92,-0.59 -1.54,-0.78 -0.62,-0.19 -1.15,-0.3 -1.58,-0.35 -0.43,-0.04 -0.92,-0.07 -1.47,-0.07l-6.49 0zm30.62 7.88l15.41 0 0 4.59 -15.41 0 0 8.65 17.66 0 0 4.59 -23.19 0 0 -30.29 22.72 0 0 4.59 -17.18 0 0 7.88zm29.32 1.17l12.16 -13.63 6.58 0 -13.41 13.98 14.54 16.31 -7.01 0 -12.85 -15.71 0 15.71 -5.54 0 0 -30.29 5.54 0 0 13.63zm23.31 16.66l0 -4.59c0.92,0.17 1.74,0.14 2.47,-0.09 0.72,-0.23 1.31,-0.57 1.77,-1.02 0.46,-0.45 0.86,-1.09 1.21,-1.93 0.35,-0.84 0.6,-1.62 0.76,-2.36 0.16,-0.74 0.29,-1.67 0.39,-2.81 0.1,-1.14 0.16,-2.08 0.17,-2.81 0.01,-0.74 0.02,-1.67 0.02,-2.79l0 -11.9 20.73 0 0 30.29 -5.54 0 0 -25.7 -9.65 0 0 8.96c0,1.88 -0.05,3.51 -0.15,4.91 -0.1,1.4 -0.39,2.99 -0.86,4.76 -0.48,1.77 -1.13,3.2 -1.97,4.26 -0.84,1.07 -2.06,1.9 -3.66,2.49 -1.6,0.59 -3.5,0.7 -5.69,0.32zm40.88 -6.36l-2.21 6.36 -5.93 0 11.43 -30.29 5.54 0 11.42 30.29 -5.93 0 -2.21 -6.36 -12.12 0zm1.47 -4.59l9.17 0 -4.59 -13.46 -4.59 13.46zm38.45 10.95l-8.92 -23.97 -0.09 0 0.09 1.17 0 22.8 -5.54 0 0 -30.29 8.27 0 8.26 22.98 8.26 -22.98 8.26 0 0 30.29 -5.54 0 0 -22.8 0.09 -1.17 -0.09 0 -8.92 23.97 -4.15 0zm33.21 -13.59l0 13.59 -5.54 0 0 -30.29 5.54 0 0 12.12 13.5 0 0 -12.12 5.54 0 0 30.29 -5.54 0 0 -13.59 -13.5 0zm39.56 -17.55c0.53,-0.04 1.09,-0.07 1.66,-0.07 0.58,0 1.13,0.02 1.67,0.07 0.53,0.04 1.33,0.17 2.4,0.39 1.07,0.22 2.03,0.52 2.9,0.91 0.87,0.39 1.81,0.99 2.83,1.8 1.03,0.81 1.88,1.75 2.58,2.83 0.69,1.08 1.27,2.49 1.75,4.24 0.48,1.75 0.71,3.69 0.71,5.82 0,2.13 -0.24,4.07 -0.71,5.82 -0.48,1.74 -1.06,3.16 -1.75,4.24 -0.69,1.08 -1.55,2.03 -2.58,2.83 -1.02,0.81 -1.97,1.41 -2.83,1.8 -0.86,0.39 -1.83,0.69 -2.9,0.91 -1.07,0.22 -1.87,0.34 -2.4,0.39 -0.53,0.04 -1.09,0.07 -1.67,0.07 -0.58,0 -1.13,-0.02 -1.66,-0.07 -0.53,-0.04 -1.33,-0.17 -2.4,-0.39 -1.07,-0.22 -2.03,-0.52 -2.9,-0.91 -0.87,-0.39 -1.81,-0.99 -2.84,-1.8 -1.02,-0.81 -1.88,-1.75 -2.57,-2.83 -0.69,-1.08 -1.27,-2.5 -1.75,-4.24 -0.47,-1.75 -0.71,-3.69 -0.71,-5.82 0,-2.14 0.24,-4.08 0.71,-5.82 0.48,-1.74 1.06,-3.16 1.75,-4.24 0.69,-1.08 1.55,-2.03 2.57,-2.83 1.03,-0.81 1.97,-1.41 2.84,-1.8 0.86,-0.39 1.83,-0.69 2.9,-0.91 1.07,-0.22 1.87,-0.35 2.4,-0.39zm6.16 5.62c-1.24,-0.73 -2.74,-1.1 -4.5,-1.1 -1.76,0 -3.26,0.37 -4.5,1.1 -1.24,0.74 -2.17,1.71 -2.77,2.92 -0.61,1.21 -1.03,2.42 -1.27,3.64 -0.25,1.21 -0.37,2.48 -0.37,3.81 0,1.33 0.12,2.59 0.37,3.81 0.24,1.21 0.67,2.42 1.27,3.64 0.6,1.21 1.53,2.18 2.77,2.92 1.24,0.73 2.74,1.1 4.5,1.1 1.76,0 3.26,-0.37 4.5,-1.1 1.24,-0.74 2.17,-1.71 2.77,-2.92 0.61,-1.21 1.03,-2.42 1.27,-3.64 0.25,-1.21 0.37,-2.48 0.37,-3.81 0,-1.33 -0.12,-2.6 -0.37,-3.81 -0.24,-1.21 -0.67,-2.42 -1.27,-3.64 -0.6,-1.21 -1.53,-2.18 -2.77,-2.92zm17.47 16.16l0 -4.59 11.25 0 0 4.59 -11.25 0zm25.64 -16.36l0 25.7 -5.54 0 0 -30.29 24.49 0 0 30.29 -5.54 0 0 -25.7 -13.41 0zm28.02 -4.59l12.07 0c1.16,0 2.19,0.04 3.09,0.13 0.91,0.09 1.93,0.32 3.07,0.69 1.14,0.37 2.09,0.89 2.85,1.54 0.77,0.65 1.42,1.57 1.95,2.77 0.53,1.2 0.8,2.62 0.8,4.26 0,2.97 -0.94,5.34 -2.81,7.1 -1.87,1.76 -4.87,2.64 -9,2.64l-6.49 0 0 11.16 -5.54 0 0 -30.29zm5.54 4.59l0 9.95 6.45 0c0.81,0 1.5,-0.05 2.08,-0.15 0.58,-0.1 1.21,-0.3 1.9,-0.58 0.69,-0.29 1.23,-0.79 1.6,-1.49 0.37,-0.71 0.56,-1.59 0.56,-2.66 0,-0.92 -0.15,-1.72 -0.45,-2.38 -0.3,-0.66 -0.65,-1.16 -1.06,-1.49 -0.41,-0.33 -0.92,-0.59 -1.54,-0.78 -0.62,-0.19 -1.14,-0.3 -1.58,-0.35 -0.43,-0.04 -0.92,-0.07 -1.47,-0.07l-6.49 0zm36.53 -5.43c0.53,-0.04 1.09,-0.07 1.67,-0.07 0.58,0 1.13,0.02 1.66,0.07 0.53,0.04 1.33,0.17 2.4,0.39 1.07,0.22 2.03,0.52 2.9,0.91 0.87,0.39 1.81,0.99 2.84,1.8 1.02,0.81 1.88,1.75 2.57,2.83 0.69,1.08 1.27,2.49 1.75,4.24 0.48,1.75 0.71,3.69 0.71,5.82 0,2.13 -0.24,4.07 -0.71,5.82 -0.48,1.74 -1.06,3.16 -1.75,4.24 -0.69,1.08 -1.55,2.03 -2.57,2.83 -1.03,0.81 -1.97,1.41 -2.84,1.8 -0.86,0.39 -1.83,0.69 -2.9,0.91 -1.07,0.22 -1.87,0.34 -2.4,0.39 -0.53,0.04 -1.09,0.07 -1.66,0.07 -0.58,0 -1.13,-0.02 -1.67,-0.07 -0.53,-0.04 -1.33,-0.17 -2.4,-0.39 -1.07,-0.22 -2.03,-0.52 -2.9,-0.91 -0.87,-0.39 -1.81,-0.99 -2.84,-1.8 -1.02,-0.81 -1.88,-1.75 -2.57,-2.83 -0.69,-1.08 -1.27,-2.5 -1.75,-4.24 -0.47,-1.75 -0.71,-3.69 -0.71,-5.82 0,-2.14 0.24,-4.08 0.71,-5.82 0.48,-1.74 1.06,-3.16 1.75,-4.24 0.7,-1.08 1.55,-2.03 2.57,-2.83 1.03,-0.81 1.97,-1.41 2.84,-1.8 0.86,-0.39 1.83,-0.69 2.9,-0.91 1.07,-0.22 1.87,-0.35 2.4,-0.39zm6.16 5.62c-1.24,-0.73 -2.74,-1.1 -4.5,-1.1 -1.76,0 -3.26,0.37 -4.5,1.1 -1.24,0.74 -2.17,1.71 -2.77,2.92 -0.6,1.21 -1.03,2.42 -1.27,3.64 -0.25,1.21 -0.37,2.48 -0.37,3.81 0,1.33 0.12,2.59 0.37,3.81 0.24,1.21 0.67,2.42 1.27,3.64 0.6,1.21 1.53,2.18 2.77,2.92 1.24,0.73 2.74,1.1 4.5,1.1 1.76,0 3.26,-0.37 4.5,-1.1 1.24,-0.74 2.17,-1.71 2.77,-2.92 0.61,-1.21 1.03,-2.42 1.28,-3.64 0.24,-1.21 0.37,-2.48 0.37,-3.81 0,-1.33 -0.12,-2.6 -0.37,-3.81 -0.25,-1.21 -0.67,-2.42 -1.28,-3.64 -0.6,-1.21 -1.53,-2.18 -2.77,-2.92zm23.22 17.37l14.41 -22.15 5.41 0 0 30.29 -5.54 0 0 -22.15 -14.41 22.15 -5.41 0 0 -30.29 5.54 0 0 22.15zm27.16 -2.21l5.49 0c0,0.72 0.1,1.43 0.3,2.12 0.2,0.69 0.56,1.4 1.08,2.12 0.52,0.72 1.32,1.31 2.4,1.75 1.09,0.45 2.4,0.67 3.96,0.67 2.1,0 3.76,-0.44 4.95,-1.32 1.2,-0.88 1.8,-2.13 1.8,-3.74 0,-3.17 -1.99,-4.76 -5.97,-4.76l-4.15 0 0 -4.59 3.59 0c3.55,0 5.32,-1.33 5.32,-3.98 0,-3.03 -2.05,-4.54 -6.15,-4.54 -4.36,0 -6.62,1.75 -6.79,5.24l-5.5 0c0.11,-6.55 4.37,-9.82 12.77,-9.82 0.98,0 1.92,0.05 2.81,0.15 0.9,0.1 1.88,0.34 2.96,0.71 1.09,0.37 2.02,0.86 2.81,1.45 0.79,0.59 1.46,1.43 1.99,2.51 0.53,1.08 0.8,2.33 0.8,3.74 0,1.88 -0.49,3.41 -1.47,4.61 -0.98,1.2 -2.18,1.88 -3.59,2.06l0 0.09c1.79,0.26 3.28,1.05 4.47,2.36 1.2,1.31 1.8,3.09 1.8,5.34 0,0.81 -0.09,1.59 -0.28,2.34 -0.19,0.75 -0.56,1.55 -1.12,2.4 -0.56,0.85 -1.29,1.58 -2.19,2.19 -0.89,0.61 -2.13,1.12 -3.72,1.54 -1.59,0.42 -3.42,0.63 -5.49,0.63 -8.28,0 -12.58,-3.75 -12.89,-11.25zm33.6 -19.95l14.28 0c1.47,0 2.77,0.17 3.9,0.5 1.12,0.33 2.02,0.75 2.68,1.25 0.66,0.51 1.2,1.11 1.6,1.82 0.4,0.71 0.68,1.38 0.83,2.03 0.14,0.65 0.21,1.33 0.21,2.05 0,1.67 -0.47,3.11 -1.4,4.3 -0.94,1.2 -2.14,1.93 -3.62,2.19l0 0.09c0.72,0.12 1.41,0.32 2.06,0.63 0.65,0.3 1.31,0.73 1.99,1.28 0.68,0.55 1.22,1.31 1.62,2.29 0.4,0.98 0.6,2.11 0.6,3.38 0,1.24 -0.17,2.34 -0.5,3.29 -0.33,0.95 -0.79,1.72 -1.39,2.32 -0.59,0.59 -1.23,1.09 -1.93,1.49 -0.69,0.4 -1.49,0.7 -2.4,0.89 -0.91,0.19 -1.73,0.32 -2.47,0.39 -0.74,0.07 -1.54,0.11 -2.4,0.11l-13.67 0 0 -30.29zm5.54 4.59l0 7.7 7.31 0c3.29,0 4.93,-1.2 4.93,-3.59 0,-2.74 -1.69,-4.11 -5.06,-4.11l-7.18 0zm0 12.29l0 8.83 7.57 0c1.88,0 3.33,-0.32 4.37,-0.97 1.04,-0.65 1.56,-1.83 1.56,-3.53 0,-0.95 -0.18,-1.74 -0.54,-2.36 -0.36,-0.62 -0.87,-1.06 -1.54,-1.32 -0.66,-0.26 -1.27,-0.43 -1.82,-0.52 -0.55,-0.09 -1.18,-0.13 -1.9,-0.13l-7.7 0zm38.56 -17.72c0.53,-0.04 1.09,-0.07 1.67,-0.07 0.58,0 1.13,0.02 1.66,0.07 0.53,0.04 1.33,0.17 2.4,0.39 1.07,0.22 2.04,0.52 2.9,0.91 0.86,0.39 1.81,0.99 2.83,1.8 1.03,0.81 1.88,1.75 2.58,2.83 0.69,1.08 1.27,2.49 1.75,4.24 0.47,1.75 0.71,3.69 0.71,5.82 0,2.13 -0.24,4.07 -0.71,5.82 -0.48,1.74 -1.06,3.16 -1.75,4.24 -0.69,1.08 -1.55,2.03 -2.58,2.83 -1.02,0.81 -1.97,1.41 -2.83,1.8 -0.86,0.39 -1.83,0.69 -2.9,0.91 -1.07,0.22 -1.87,0.34 -2.4,0.39 -0.53,0.04 -1.09,0.07 -1.66,0.07 -0.58,0 -1.13,-0.02 -1.67,-0.07 -0.54,-0.04 -1.33,-0.17 -2.4,-0.39 -1.07,-0.22 -2.03,-0.52 -2.9,-0.91 -0.87,-0.39 -1.81,-0.99 -2.84,-1.8 -1.02,-0.81 -1.88,-1.75 -2.57,-2.83 -0.69,-1.08 -1.28,-2.5 -1.75,-4.24 -0.48,-1.75 -0.71,-3.69 -0.71,-5.82 0,-2.14 0.24,-4.08 0.71,-5.82 0.47,-1.74 1.06,-3.16 1.75,-4.24 0.69,-1.08 1.55,-2.03 2.57,-2.83 1.03,-0.81 1.97,-1.41 2.84,-1.8 0.86,-0.39 1.83,-0.69 2.9,-0.91 1.07,-0.22 1.87,-0.35 2.4,-0.39zm6.16 5.62c-1.24,-0.73 -2.74,-1.1 -4.5,-1.1 -1.76,0 -3.26,0.37 -4.5,1.1 -1.24,0.74 -2.16,1.71 -2.77,2.92 -0.61,1.21 -1.03,2.42 -1.28,3.64 -0.24,1.21 -0.37,2.48 -0.37,3.81 0,1.33 0.12,2.59 0.37,3.81 0.24,1.21 0.67,2.42 1.28,3.64 0.6,1.21 1.53,2.18 2.77,2.92 1.24,0.73 2.74,1.1 4.5,1.1 1.76,0 3.26,-0.37 4.5,-1.1 1.24,-0.74 2.16,-1.71 2.77,-2.92 0.6,-1.21 1.03,-2.42 1.27,-3.64 0.24,-1.21 0.37,-2.48 0.37,-3.81 0,-1.33 -0.13,-2.6 -0.37,-3.81 -0.24,-1.21 -0.67,-2.42 -1.27,-3.64 -0.61,-1.21 -1.53,-2.18 -2.77,-2.92zm41.27 20.92l4.15 0 -0.26 11.42 -4.85 0 0 -6.84 -22.02 0 0 6.84 -4.85 0 -0.26 -11.42 2.6 0c3.49,-4.47 5.24,-10.86 5.24,-19.17l0 -6.53 20.25 0 0 25.7zm-5.54 -21.12l-9.17 0 0 3.64c0,3.64 -0.29,6.79 -0.86,9.46 -0.58,2.67 -1.69,5.34 -3.33,8.03l13.37 0 0 -21.12zm35.81 15.36l5.49 0c-0.11,1.04 -0.3,2.03 -0.56,2.96 -0.26,0.94 -0.7,1.93 -1.32,2.98 -0.62,1.05 -1.39,1.95 -2.31,2.71 -0.92,0.75 -2.15,1.37 -3.68,1.86 -1.53,0.49 -3.28,0.74 -5.24,0.74 -0.55,0 -1.08,-0.01 -1.6,-0.04 -0.52,-0.03 -1.31,-0.15 -2.38,-0.37 -1.07,-0.22 -2.04,-0.5 -2.92,-0.86 -0.88,-0.36 -1.85,-0.93 -2.9,-1.71 -1.05,-0.78 -1.94,-1.69 -2.66,-2.75 -0.72,-1.05 -1.33,-2.42 -1.81,-4.11 -0.49,-1.69 -0.74,-3.58 -0.74,-5.69 0,-3 0.41,-5.6 1.21,-7.81 0.81,-2.21 1.93,-3.93 3.35,-5.17 1.43,-1.24 2.98,-2.15 4.65,-2.73 1.67,-0.58 3.51,-0.87 5.49,-0.87 1.99,0 3.76,0.24 5.3,0.71 1.55,0.48 2.78,1.08 3.7,1.8 0.92,0.72 1.69,1.58 2.29,2.57 0.6,1 1.03,1.94 1.25,2.83 0.23,0.89 0.37,1.82 0.43,2.77l-5.5 0c-0.09,-0.72 -0.27,-1.4 -0.54,-2.03 -0.27,-0.64 -0.67,-1.28 -1.19,-1.93 -0.52,-0.65 -1.28,-1.17 -2.27,-1.56 -1,-0.39 -2.16,-0.58 -3.49,-0.58 -1.61,0 -3.01,0.31 -4.19,0.93 -1.18,0.62 -2.1,1.49 -2.75,2.62 -0.65,1.12 -1.12,2.36 -1.41,3.7 -0.29,1.34 -0.43,2.85 -0.43,4.52 0,3.49 0.86,6.22 2.58,8.2 1.72,1.98 3.97,2.96 6.77,2.96 2.34,0 4.12,-0.66 5.34,-1.97 1.23,-1.31 1.9,-2.88 2.01,-4.69zm18.94 -15.36l-9.52 0 0 -4.59 24.58 0 0 4.59 -9.52 0 0 25.7 -5.54 0 0 -25.7zm21.01 -4.59l14.28 0c1.47,0 2.77,0.17 3.89,0.5 1.12,0.33 2.02,0.75 2.68,1.25 0.66,0.51 1.2,1.11 1.6,1.82 0.41,0.71 0.68,1.38 0.82,2.03 0.15,0.65 0.22,1.33 0.22,2.05 0,1.67 -0.47,3.11 -1.41,4.3 -0.94,1.2 -2.14,1.93 -3.62,2.19l0 0.09c0.72,0.12 1.41,0.32 2.06,0.63 0.65,0.3 1.32,0.73 1.99,1.28 0.67,0.55 1.22,1.31 1.62,2.29 0.4,0.98 0.6,2.11 0.6,3.38 0,1.24 -0.17,2.34 -0.5,3.29 -0.33,0.95 -0.79,1.72 -1.38,2.32 -0.59,0.59 -1.23,1.09 -1.93,1.49 -0.69,0.4 -1.49,0.7 -2.4,0.89 -0.91,0.19 -1.73,0.32 -2.47,0.39 -0.73,0.07 -1.54,0.11 -2.4,0.11l-13.67 0 0 -30.29zm5.54 4.59l0 7.7 7.31 0c3.29,0 4.93,-1.2 4.93,-3.59 0,-2.74 -1.69,-4.11 -5.06,-4.11l-7.18 0zm0 12.29l0 8.83 7.57 0c1.87,0 3.33,-0.32 4.37,-0.97 1.04,-0.65 1.56,-1.83 1.56,-3.53 0,-0.95 -0.18,-1.74 -0.54,-2.36 -0.36,-0.62 -0.87,-1.06 -1.54,-1.32 -0.66,-0.26 -1.27,-0.43 -1.82,-0.52 -0.55,-0.09 -1.18,-0.13 -1.9,-0.13l-7.7 0zm32.65 -4.41l15.4 0 0 4.59 -15.4 0 0 8.65 17.65 0 0 4.59 -23.19 0 0 -30.29 22.72 0 0 4.59 -17.18 0 0 7.88zm29.32 4.24l0 13.59 -5.54 0 0 -30.29 5.54 0 0 12.12 13.5 0 0 -12.12 5.54 0 0 30.29 -5.54 0 0 -13.59 -13.5 0zm33.65 0l0 13.59 -5.54 0 0 -30.29 5.54 0 0 12.12 13.5 0 0 -12.12 5.54 0 0 30.29 -5.54 0 0 -13.59 -13.5 0zm32.39 7.23l-2.21 6.36 -5.93 0 11.42 -30.29 5.54 0 11.42 30.29 -5.93 0 -2.2 -6.36 -12.12 0zm1.47 -4.59l9.17 0 -4.59 -13.46 -4.59 13.46zm42.26 -0.35l-5.28 0 -7.27 11.29 -7.01 0 8.57 -11.9c-0.86,-0.12 -1.7,-0.32 -2.49,-0.61 -0.79,-0.29 -1.64,-0.74 -2.55,-1.36 -0.91,-0.62 -1.64,-1.53 -2.18,-2.73 -0.55,-1.2 -0.83,-2.6 -0.83,-4.22 0,-1.73 0.3,-3.22 0.89,-4.46 0.59,-1.24 1.29,-2.18 2.1,-2.81 0.81,-0.64 1.82,-1.12 3.05,-1.47 1.23,-0.34 2.26,-0.56 3.09,-0.63 0.84,-0.07 1.82,-0.11 2.94,-0.11l12.51 0 0 30.29 -5.54 0 0 -11.29zm0 -14.41l-7.23 0c-4.07,0 -6.1,1.67 -6.1,5.02 0,3.2 2.16,4.8 6.49,4.8l6.84 0 0 -9.82zm-518.76 59.24l12.16 -13.63 6.58 0 -13.41 13.98 14.54 16.31 -7.01 0 -12.85 -15.71 0 15.71 -5.54 0 0 -30.29 5.54 0 0 13.63zm36.53 -14.47c0.54,-0.04 1.09,-0.07 1.67,-0.07 0.58,0 1.13,0.02 1.66,0.07 0.53,0.04 1.33,0.17 2.4,0.39 1.07,0.22 2.04,0.52 2.9,0.91 0.86,0.39 1.81,0.99 2.83,1.8 1.02,0.81 1.88,1.75 2.58,2.83 0.69,1.08 1.27,2.49 1.75,4.24 0.47,1.74 0.71,3.68 0.71,5.82 0,2.13 -0.24,4.07 -0.71,5.82 -0.48,1.74 -1.06,3.16 -1.75,4.24 -0.69,1.08 -1.56,2.03 -2.58,2.83 -1.03,0.81 -1.97,1.41 -2.83,1.8 -0.86,0.39 -1.83,0.69 -2.9,0.91 -1.07,0.22 -1.87,0.35 -2.4,0.39 -0.54,0.04 -1.09,0.07 -1.66,0.07 -0.58,0 -1.13,-0.02 -1.67,-0.07 -0.53,-0.04 -1.33,-0.17 -2.4,-0.39 -1.07,-0.22 -2.03,-0.52 -2.9,-0.91 -0.86,-0.39 -1.81,-0.99 -2.83,-1.8 -1.02,-0.81 -1.88,-1.75 -2.57,-2.83 -0.7,-1.08 -1.28,-2.49 -1.75,-4.24 -0.48,-1.75 -0.71,-3.69 -0.71,-5.82 0,-2.14 0.24,-4.08 0.71,-5.82 0.47,-1.75 1.06,-3.16 1.75,-4.24 0.69,-1.08 1.55,-2.03 2.57,-2.83 1.03,-0.81 1.97,-1.41 2.83,-1.8 0.87,-0.39 1.83,-0.69 2.9,-0.91 1.07,-0.22 1.87,-0.35 2.4,-0.39zm6.17 5.63c-1.24,-0.74 -2.74,-1.1 -4.5,-1.1 -1.76,0 -3.26,0.37 -4.5,1.1 -1.24,0.73 -2.16,1.71 -2.77,2.92 -0.6,1.21 -1.03,2.42 -1.27,3.64 -0.24,1.21 -0.37,2.48 -0.37,3.81 0,1.33 0.12,2.6 0.37,3.81 0.24,1.21 0.67,2.42 1.27,3.64 0.61,1.21 1.53,2.18 2.77,2.92 1.24,0.73 2.74,1.1 4.5,1.1 1.76,0 3.26,-0.37 4.5,-1.1 1.24,-0.74 2.16,-1.71 2.77,-2.92 0.6,-1.21 1.03,-2.42 1.27,-3.64 0.24,-1.21 0.37,-2.48 0.37,-3.81 0,-1.33 -0.12,-2.6 -0.37,-3.81 -0.24,-1.21 -0.67,-2.42 -1.27,-3.64 -0.61,-1.21 -1.53,-2.18 -2.77,-2.92zm32.13 25.51l-8.91 -23.97 -0.09 0 0.09 1.17 0 22.8 -5.54 0 0 -30.29 8.26 0 8.27 22.98 8.26 -22.98 8.26 0 0 30.29 -5.54 0 0 -22.8 0.09 -1.17 -0.09 0 -8.92 23.97 -4.15 0zm33.22 -25.7l0 25.7 -5.54 0 0 -30.29 24.49 0 0 30.29 -5.54 0 0 -25.7 -13.41 0zm32.31 19.34l-2.21 6.36 -5.93 0 11.42 -30.29 5.54 0 11.42 30.29 -5.93 0 -2.21 -6.36 -12.12 0zm1.47 -4.59l9.17 0 -4.59 -13.46 -4.59 13.46zm29.54 -2.64l0 13.59 -5.54 0 0 -30.29 5.54 0 0 12.12 13.5 0 0 -12.12 5.54 0 0 30.29 -5.54 0 0 -13.59 -13.5 0zm33.65 5.45l14.41 -22.16 5.41 0 0 30.29 -5.54 0 0 -22.15 -14.41 22.15 -5.41 0 0 -30.29 5.54 0 0 22.16zm47.15 -3.16l-5.28 0 -7.27 11.29 -7.01 0 8.57 -11.9c-0.86,-0.11 -1.69,-0.32 -2.49,-0.61 -0.79,-0.29 -1.65,-0.74 -2.55,-1.36 -0.91,-0.62 -1.64,-1.53 -2.19,-2.73 -0.55,-1.2 -0.82,-2.6 -0.82,-4.22 0,-1.73 0.3,-3.22 0.89,-4.46 0.59,-1.24 1.29,-2.18 2.1,-2.81 0.81,-0.63 1.82,-1.12 3.05,-1.47 1.22,-0.34 2.26,-0.56 3.09,-0.63 0.84,-0.07 1.82,-0.11 2.94,-0.11l12.51 0 0 30.29 -5.54 0 0 -11.29zm0 -14.41l-7.23 0c-4.07,0 -6.1,1.67 -6.1,5.02 0,3.2 2.16,4.8 6.49,4.8l6.84 0 0 -9.82z"/>
  </g>
 </g>
</svg>
