<?xml version="1.0" encoding="UTF-8"?>
<!DOCTYPE svg PUBLIC "-//W3C//DTD SVG 1.1//EN" "http://www.w3.org/Graphics/SVG/1.1/DTD/svg11.dtd">
<!-- Creator: CorelDRAW -->
<svg xmlns="http://www.w3.org/2000/svg" xml:space="preserve" width="28.2703mm" height="22.8762mm" version="1.1" style="shape-rendering:geometricPrecision; text-rendering:geometricPrecision; image-rendering:optimizeQuality; fill-rule:evenodd; clip-rule:evenodd"
viewBox="0 0 247.68 200.42"
 xmlns:xlink="http://www.w3.org/1999/xlink"
 xmlns:xodm="http://www.corel.com/coreldraw/odm/2003">
 <defs>
  <style type="text/css">
   <![CDATA[
    .fil0 {fill:#007136}
    .fil1 {fill:#01BE71}
   ]]>
  </style>
 </defs>
 <g id="Слой_x0020_1">
  <metadata id="CorelCorpID_0Corel-Layer"/>
  <g id="_2293264673424">
   <path class="fil0" d="M12.7 7.32l5.6 0c6.25,0 11.47,4.63 12.41,10.62l114.83 0 0 -13.48c0,-2.45 2.01,-4.46 4.46,-4.46l60.23 0c2.46,0 4.46,2.01 4.46,4.46l0 13.48 2.42 0c0.94,-5.99 6.16,-10.62 12.41,-10.62l5.6 0c6.91,0 12.56,5.65 12.56,12.56l0 55.84 -13.51 0 0.06 109.68 12.96 12.99 -2.26 2.04 -28.28 -28.28 2.26 -2.04 10.81 10.81 0 -44.42 -42.67 0 0 16.76 28.96 0 0 0.53 0 3.05 0 1.08c0,6.33 -4.65,11.62 -10.7,12.63l-2.1 0.18 -0.38 0c-41,0 -82.83,0 -122.55,0 -7.04,0 -12.8,-5.76 -12.8,-12.8l0 -0.68 0 -12.12 0 -8.62 -49.91 0 0.03 48.9 12.96 12.99 -2.26 2.04 -28.28 -28.28 2.26 -2.04 10.81 10.81 0 -105.19 -12.93 0 0 -55.84c0,-6.91 5.65,-12.56 12.56,-12.56zm174.34 125.59l42.67 0 0 -16.45 -42.67 0 0 16.45zm0 -20.03l42.67 0 0 -37.15 -12.75 0 0 -6.6 -29.92 0 0 43.75zm0 -47.34l29.92 0 0 -15.82 -35.33 0c3.3,2.69 5.41,6.79 5.41,11.35l0 4.47zm-12.98 -15.82l-109.28 0c3.56,2.68 5.87,6.94 5.87,11.71l0 83.68 0 3.18 0 5.48 0 3.45 0 0.68c0,5.28 4.33,9.62 9.62,9.62l5.68 0c5.28,0 9.62,-4.33 9.62,-9.62l0 -1.08 -0.05 0 0 -3.59 88.34 0 0 -92.18c0,-5.74 -4.28,-10.53 -9.79,-11.35zm12.98 107.12l0 0.04 -3.18 0 0 -0.04 -85.1 0 0 1.08c0,3.61 -1.51,6.88 -3.94,9.21l110.49 0 0 0.17c4.28,-0.97 7.51,-4.82 7.51,-9.38l0 -1.08 -25.78 0zm-156.18 -106.88l0 15.58 36.61 0 0 -4.11c0,-6.31 -5.17,-11.48 -11.48,-11.48l-25.13 0zm36.61 19.17l-36.61 0 0 6.6 -13.34 0 0.02 37.15 49.93 0 0 -43.75zm0 47.34l-49.92 0 0.01 16.45 49.91 0 0 -16.45zm81.71 -98.52l9.81 0c0.01,-0.1 0.02,-0.2 0.02,-0.3l0 -10.79c0,-1.44 -1.18,-2.62 -2.62,-2.62l-4.59 0c-1.44,0 -2.62,1.18 -2.62,2.62l0 10.79c0,0.1 0,0.2 0.02,0.3zm13.02 0l9.81 0c0.01,-0.1 0.02,-0.2 0.02,-0.3l0 -10.79c0,-1.44 -1.18,-2.62 -2.62,-2.62l-4.59 0c-1.44,0 -2.62,1.18 -2.62,2.62l0 10.79c0,0.1 0.01,0.2 0.02,0.3zm13.01 0l9.81 0c0.01,-0.1 0.02,-0.2 0.02,-0.3l0 -10.79c0,-1.44 -1.18,-2.62 -2.62,-2.62l-4.59 0c-1.44,0 -2.62,1.18 -2.62,2.62l0 10.79c0,0.1 0.01,0.2 0.02,0.3zm13.01 0l9.81 0c0.01,-0.1 0.02,-0.2 0.02,-0.3l0 -10.79c0,-1.44 -1.18,-2.62 -2.62,-2.62l-4.59 0c-1.44,0 -2.62,1.18 -2.62,2.62l0 10.79c0,0.1 0.01,0.2 0.02,0.3zm13.02 0l9.81 0c0.01,-0.1 0.02,-0.2 0.02,-0.3l0 -10.79c0,-1.44 -1.18,-2.62 -2.62,-2.62l-4.59 0c-1.44,0 -2.62,1.18 -2.62,2.62l0 10.79c0,0.1 0.01,0.2 0.02,0.3zm-53.9 9.75l27.08 0c1.17,0 2.13,0.96 2.13,2.13l0 2.03 40.41 0 0 -9.97 -186.1 0 0 9.97 114.35 0 0 -2.03c0,-1.17 0.96,-2.13 2.13,-2.13zm29.21 8.11l0 9.97 40.41 0 0 -9.97 -40.41 0zm-31.34 9.97l0 -9.97 -114.35 0 0 9.97 114.35 0zm3.18 -14.9l24.98 0 0 14.12 -24.98 0 0 -14.12zm71.75 41.66l24.35 0 0 -52.65c0,-5.15 -4.23,-9.38 -9.38,-9.38l-5.6 0c-5.15,0 -9.38,4.23 -9.38,9.38l0 52.65zm-216.82 0l24.35 0 0 -22.58 0 -3.18 0 -26.89c0,-5.15 -4.23,-9.38 -9.38,-9.38l-5.6 0c-5.15,0 -9.38,4.23 -9.38,9.38l0 52.65z"/>
   <path class="fil1" d="M174.06 49.72l-109.28 0c3.56,2.68 5.87,6.94 5.87,11.71l0 83.68 0 3.18 0 5.48 0 3.45 0 0.68c0,5.28 4.33,9.62 9.62,9.62l5.68 0c5.28,0 9.62,-4.33 9.62,-9.62l0 -1.08 -0.05 0 0 -3.59 88.34 0 0 -92.18c0,-5.74 -4.28,-10.53 -9.79,-11.35z"/>
   <path class="fil1" d="M187.04 156.83l0 0.04 -3.18 0 0 -0.04 -85.1 0 0 1.08c0,3.61 -1.51,6.88 -3.94,9.21l110.49 0 0 0.17c4.28,-0.97 7.51,-4.82 7.51,-9.38l0 -1.08 -25.78 0z"/>
  </g>
 </g>
</svg>
