<?xml version="1.0" encoding="UTF-8"?>
<!DOCTYPE svg PUBLIC "-//W3C//DTD SVG 1.1//EN" "http://www.w3.org/Graphics/SVG/1.1/DTD/svg11.dtd">
<!-- Creator: CorelDRAW -->
<svg xmlns="http://www.w3.org/2000/svg" xml:space="preserve" width="38.7902mm" height="37.1742mm" version="1.1" style="shape-rendering:geometricPrecision; text-rendering:geometricPrecision; image-rendering:optimizeQuality; fill-rule:evenodd; clip-rule:evenodd"
viewBox="0 0 378.39 362.63"
 xmlns:xlink="http://www.w3.org/1999/xlink"
 xmlns:xodm="http://www.corel.com/coreldraw/odm/2003">
 <defs>
  <style type="text/css">
   <![CDATA[
    .fil0 {fill:#007136}
    .fil1 {fill:#00C875}
   ]]>
  </style>
 </defs>
 <g id="Слой_x0020_1">
  <metadata id="CorelCorpID_0Corel-Layer"/>
  <g id="_2294769552608">
   <path class="fil0" d="M150.23 213.16c3.36,-10.06 5.11,-36.3 7,-40.74 3.07,1.86 5.01,1.5 7.98,3.32 0.17,5.01 -5.03,33.77 -7.03,39.03 -2.66,-0.37 -5.37,-0.1 -7.95,-1.61zm-142.56 79.88c-0.93,-3.43 0.02,-5.09 -0.94,-8.63 3.33,-0.4 16.95,2.31 21.2,2.9 4.3,0.6 17.6,1.5 20.32,2.78l-1.22 7.36c-5.79,0.42 -34.38,-2.82 -39.36,-4.41zm136.87 -87.77c-5.11,-5.32 -11.75,-15.43 -16.44,-21.72 -6.26,-8.41 -9.92,-11.73 -12.1,-20.75 3.27,-0.86 1.49,-0.74 4.99,0.38l28.44 7.44c0.25,3.85 -1.36,12.95 -2.02,17.47 -0.86,5.92 -2.19,11.57 -2.87,17.19zm-137.27 71.14c0.49,-5.85 0.18,-10.97 0.41,-17.14 0.11,-2.82 0.19,-5.49 0.36,-8.39 0.44,-7.33 -0.56,-5.58 1.31,-8.75 8.12,4.7 10.55,9.66 16.9,18.19 4.62,6.21 11.96,14.96 15.6,21.35 -10.03,-1.89 -25.36,-2.16 -34.59,-5.26zm105.45 -103.31c9.75,11.98 31.25,42.44 42.22,57.18l40.66 54.87 -0.74 2.69 -88.93 66c-0.13,0.06 -0.36,0.26 -0.57,0.14 -0.2,-0.11 -0.37,0.06 -0.56,0.08 -1.75,-0.22 -4.74,-5.14 -5.82,-6.59l-36.65 -49.25c-10.04,-13.5 -34.62,-45.07 -42.12,-56.25 -2.45,-4.69 -7.78,-5.38 -11.23,-7.27 4.21,-8.39 2.73,-14.44 17.46,-33.02 7.29,6.68 10.22,9.63 18.14,10.47 13.22,1.41 30.77,-11.99 32.7,-24.78 0.32,-2.13 0.24,-6.62 -0.44,-9.64 -0.84,-3.71 -2.52,-5.84 -3.67,-9.07l-0.34 -1.34c6.23,-2.48 12.36,-4.15 18.48,-5.4 8.35,-1.7 15.01,-1.09 17.68,-1.64 0.88,3.87 -0.12,9.07 3.73,12.83zm-79.46 25.27c17.92,-7.13 21.93,-10.57 34,-25.3 6.21,10.27 3.71,18.98 -6.61,26.63 -10.1,7.49 -19.58,7.73 -27.39,-1.34zm123.86 23.81c5.31,0.83 6.65,-0.87 8.34,-6.16l6.27 -34.51c1.86,-12.8 0.89,-11.44 -12.38,-15.42 -21.48,-6.46 -46.98,-15.43 -69.27,-11.08 -38.18,7.44 -19.65,11.32 -41.95,27.92 -3.95,2.94 -8.34,5.55 -12.67,7.16 -4.59,1.7 -9.04,1.17 -11.95,4 -4.72,4.59 -11.47,15.96 -14.39,21.51 -10.18,19.36 -8.97,48.22 -9.09,69.55 -0.08,13.83 -0.62,14.02 11.85,15.83 9.72,1.41 24.67,3.72 34.88,3.77 5.47,0.03 7.08,-1.34 7.67,-6.16 10.7,11.03 41.47,59.41 49.1,64.03 4.68,-1.34 98.54,-71.3 100.79,-75.05 -1.8,-7.63 -39.91,-52.77 -47.19,-65.39z"/>
   <path class="fil0" d="M191.22 0l0 0c2.13,0 3.87,1.74 3.87,3.87l0 11.77 -7.75 0 0 -11.77c0,-2.13 1.74,-3.87 3.87,-3.87z"/>
   <path class="fil1" d="M210.24 22.44c50.1,8.24 89.41,48.48 96.25,99.04 -7.08,-5.47 -15.96,-8.73 -25.6,-8.73 -10.6,0 -20.29,3.94 -27.67,10.43l0.28 -2.01c0,0 1.42,-32.5 -12.41,-60.01 -10.2,-20.29 -24.2,-33.3 -30.85,-38.73zm35.46 97.72c-6.76,-4.67 -14.96,-7.41 -23.79,-7.41 -10.38,0 -19.89,3.78 -27.21,10.04l0 -101.59c3.74,2.02 28.59,16.39 40.99,47.64 8.54,21.51 10.04,40.4 10.01,51.32zm-58.16 1.37c-7.09,-5.5 -15.99,-8.78 -25.66,-8.78 -9.73,0 -18.69,3.32 -25.8,8.89 -0.18,-10.63 1.05,-30.28 9.99,-52.8 13.44,-33.84 41.47,-47.9 41.47,-47.9l0 100.59zm-59.27 -0.35c-7.01,-5.29 -15.74,-8.42 -25.2,-8.42 -10.43,0 -19.98,3.82 -27.31,10.12 6.26,-50.93 45.44,-91.67 95.6,-100.3 -6.71,5.51 -20.56,18.47 -30.67,38.59 -13.83,27.51 -12.41,60.01 -12.41,60.01l0 0z"/>
   <path class="fil0" d="M194.39 198.18c0.23,2.99 1.2,6.67 2.36,9.37 1.99,4.66 5.17,8.42 10.59,8.59 4.68,0.15 8.24,-1.67 10.62,-5.71 1.09,-1.85 2.08,-4.58 2.32,-6.74l0.34 -3.33 6.66 0.69 -0.35 3.33c-0.31,3.03 -1.6,6.66 -3.1,9.26 -3.6,6.24 -9.5,9.41 -16.7,9.19 -8.17,-0.26 -13.55,-5.6 -16.58,-12.76 -1.43,-3.38 -2.57,-7.83 -2.84,-11.53l-0.01 -0.12 0 -60.16 6.69 0 0 59.92z"/>
   <path class="fil0" d="M343.82 241.57l0 15.8c0,8.67 -10.48,13.53 -17.46,15.87 -11.35,3.81 -24.47,5.1 -36.41,5.1 -11.93,0 -25.06,-1.29 -36.41,-5.1 -6.97,-2.34 -17.46,-7.2 -17.46,-15.87l0 -81.29 0.56 0c2.25,-6.59 10.82,-10.47 16.9,-12.52 11.35,-3.81 24.47,-5.1 36.41,-5.1 11.93,0 25.06,1.29 36.41,5.1 6.3,2.12 15.27,6.21 17.12,13.24l0.03 0.11 0.28 14.5c2.24,-0.53 4.55,-0.8 6.85,-0.8 14.5,0 27.74,10.84 27.74,25.87 0,15.03 -13.24,25.87 -27.74,25.87 -2.3,0 -4.59,-0.26 -6.83,-0.79zm-102.44 -60.19l0 75.99c0,5.58 9.62,9.43 13.85,10.85 10.7,3.6 23.48,4.82 34.72,4.82 11.24,0 24.02,-1.23 34.72,-4.82 4.23,-1.42 13.85,-5.26 13.85,-10.85l0 -23.51 1.41 0.7c3.33,1.66 7,2.49 10.72,2.49 11.59,0 22.44,-8.51 22.44,-20.57 0,-12.06 -10.85,-20.57 -22.44,-20.57 -3.72,0 -7.39,0.83 -10.72,2.49l-1.41 0.7 0 -1.58c0,-6.04 0,-12.08 0,-18.11 0,-5.58 -9.62,-9.43 -13.85,-10.85 -10.7,-3.6 -23.48,-4.82 -34.72,-4.82 -11.24,0 -24.02,1.23 -34.72,4.82 -4.23,1.42 -13.85,5.26 -13.85,10.85 0,0.27 0.03,0.54 0.07,0.81l0.19 1.14 -0.27 0zm97.56 20.49c3.44,-2.36 7.54,-3.56 11.7,-3.56 10.23,0 19.69,7.58 19.69,18.19 0,10.61 -9.45,18.19 -19.69,18.19 -4.17,0 -8.26,-1.21 -11.7,-3.56l-0.42 -0.29 0 -28.67 0.42 -0.29zm-48.99 -37.55c9.75,0 20.79,1.07 30.07,4.19 4.54,1.53 12.99,5.08 12.99,10.93 0,5.84 -8.45,9.4 -12.99,10.93 -9.29,3.12 -20.32,4.19 -30.07,4.19 -9.75,0 -20.79,-1.07 -30.07,-4.19 -4.54,-1.53 -12.99,-5.08 -12.99,-10.93 0,-5.84 8.45,-9.4 12.99,-10.93 9.29,-3.12 20.32,-4.19 30.07,-4.19zm53.87 40.83l0 22.69c2.12,1.03 4.47,1.55 6.83,1.55 7.26,0 14.39,-5.21 14.39,-12.89 0,-7.68 -7.13,-12.89 -14.39,-12.89 -2.36,0 -4.71,0.51 -6.83,1.55zm-53.87 -35.54c-9.25,0 -19.59,0.96 -28.39,3.92 -2.58,0.87 -5.57,2.08 -7.71,3.78 -0.48,0.38 -1.67,1.45 -1.67,2.12 0,0.68 1.19,1.74 1.67,2.12 2.14,1.7 5.13,2.92 7.71,3.78 8.8,2.96 19.14,3.92 28.39,3.92 9.25,0 19.59,-0.96 28.39,-3.92 2.58,-0.87 5.57,-2.08 7.71,-3.78 0.48,-0.38 1.67,-1.45 1.67,-2.12 0,-0.68 -1.19,-1.74 -1.67,-2.12 -2.14,-1.7 -5.13,-2.92 -7.71,-3.78 -8.8,-2.96 -19.14,-3.92 -28.39,-3.92z"/>
   <path class="fil0" d="M209.04 313.05l14.52 -6.28c0.13,1.96 0.08,4.05 0.09,6.01 0.01,1.15 0.3,5.09 -0.3,6.04 -2.01,-0.97 -13.14,-5 -14.31,-5.77zm19.19 6.09c-0.19,-0.9 -0.32,-11.96 -0.28,-12.77 0.5,-0.19 20.46,-0.32 22.77,-0.34l56.85 -0.63c1.36,-0.02 10.94,-0.22 11.44,-0.04l0.15 13c-7.1,0.22 -15.46,0.2 -22.69,0.26l-45.52 0.46c-0.71,0.01 -21.94,0.37 -22.72,0.05zm95.2 -13.91c1.11,-0.01 5.77,-0.21 6.62,0.07 0.46,0.16 1.44,1.02 1.75,1.46 0.29,0.43 0.2,4.26 0.2,4.91 0.01,0.76 0.24,4.48 -0.16,5.01 -0.33,0.44 -1.19,1.25 -1.65,1.42 -0.64,0.24 -5.86,0.26 -6.63,0.2 -0.14,-0.52 -0.25,-12.68 -0.13,-13.08zm-125.48 7.92c0.98,0.64 22.24,9.13 24.67,10.09 0.97,0.38 1.01,0.52 1.91,0.51l34.09 -0.38c10.13,-0.1 20.15,-0.2 30.28,-0.33 0.49,-0.01 29.69,-0.42 30.29,-0.27l0.06 4.17c-0.95,0.28 -28.98,0.18 -30.36,0.45l0.04 4.15c0.58,0.19 24.1,-0.19 25.9,-0.21l8.74 -0.13c0.13,-0.52 0.04,-7.56 -0.04,-8.47 1.05,-0.36 8.21,0.21 8.79,-0.38l3.94 -4.03c0.53,-0.54 0.3,-2.21 0.29,-3.36l-0.07 -6.71c-0,-0.61 -0.01,-0.99 -0.02,-1.63 -0.01,-0.57 0.18,-1.18 -0.35,-1.71l-4.03 -3.94c-0.33,-0.33 -1.62,-0.17 -2.08,-0.17l-102.73 1.17c-1.05,0.01 -3.21,-0.14 -4.16,0.25 -2.84,1.17 -5.57,2.38 -8.4,3.6l-12.46 5.36c-1.13,0.49 -3.34,1.31 -4.31,1.95z"/>
  </g>
 </g>
</svg>
